<svg width="379" height="109" viewBox="0 0 379 109" fill="none" xmlns="http://www.w3.org/2000/svg">
<g clip-path="url(#clip0_0_1)">
<path d="M77.0102 0H0V77H77.0102V0Z" fill="black"/>
<path d="M66.8625 58.938C67.5782 58.938 68.2294 59.0287 68.8164 59.2108C69.4033 59.3868 69.9077 59.6568 70.3302 60.0204C70.7466 60.3784 71.0722 60.83 71.3071 61.3756C71.5359 61.9212 71.6503 62.5636 71.6503 63.3028C71.6503 63.6372 71.6327 63.9688 71.5975 64.2972C71.5623 64.62 71.5035 64.9572 71.4215 65.3092L69.6877 65.1508C69.5353 65.1392 69.4121 65.0804 69.318 64.9748C69.224 64.8631 69.1772 64.7108 69.1772 64.5172C69.1772 64.4176 69.1948 64.2944 69.23 64.1476C69.2592 64.0007 69.274 63.8247 69.274 63.6196C69.274 63.3319 69.2361 63.0828 69.1596 62.8716C69.0776 62.6543 68.9456 62.4756 68.7636 62.3348C68.576 62.194 68.3323 62.0884 68.0331 62.018C67.7338 61.9476 67.3642 61.9124 66.9241 61.9124H58.6862V58.938H66.8625ZM71.5095 45.3456V47.6512C71.5095 47.9093 71.4507 48.1234 71.3335 48.2936C71.2103 48.4578 71.0546 48.5722 70.867 48.6368L68.6315 49.3936V54.2688L70.867 55.0253C71.0315 55.0841 71.1811 55.1985 71.3159 55.3685C71.4452 55.539 71.5095 55.7469 71.5095 55.9933V58.3165L58.6862 53.3536V50.3088L71.5095 45.3456ZM66.6073 53.5824V50.08L63.0956 51.2592C62.8728 51.3354 62.6115 51.4264 62.3123 51.532C62.007 51.6317 61.6786 51.7314 61.3266 51.8312C61.6847 51.925 62.0158 52.0218 62.3211 52.1216C62.6264 52.2213 62.8904 52.3152 63.1132 52.4032L66.6073 53.5824ZM58.6862 42.7354C58.6862 42.6063 58.6923 42.4978 58.7038 42.4098C58.7154 42.3218 58.739 42.2426 58.7742 42.1722C58.8034 42.1018 58.8474 42.0343 58.9063 41.9698C58.9651 41.9053 59.0443 41.8319 59.1439 41.7498L66.8449 35.6602C66.5985 35.6837 66.3608 35.7013 66.132 35.713C65.8971 35.7247 65.6771 35.7306 65.4719 35.7306H58.6862V33.1082H71.5095V34.657C71.5095 34.8858 71.4743 35.0794 71.4039 35.2378C71.3335 35.3962 71.2042 35.5487 71.0167 35.6954L63.3773 41.741C63.6 41.7234 63.8201 41.7087 64.0373 41.697C64.2486 41.6853 64.4482 41.6794 64.6358 41.6794H71.5095V44.3018H58.6862V42.7354ZM71.5095 27.7426V30.7346H58.6862V27.7426H71.5095ZM58.6862 17.1067H60.9745V22.3691H63.9669V18.3387H66.1672V22.3691H69.2212V17.1067H71.5095V25.3611H58.6862V17.1067ZM68.1915 6.79441C68.1915 6.72401 68.2063 6.65361 68.2355 6.58321C68.2591 6.51281 68.3031 6.44533 68.3675 6.38081L69.6085 5.20161C70.2834 5.7179 70.7939 6.36613 71.1399 7.14641C71.4804 7.92081 71.6503 8.83893 71.6503 9.90081C71.6503 10.8747 71.4859 11.7488 71.1575 12.5232C70.823 13.2917 70.3654 13.9459 69.7845 14.4856C69.1976 15.0195 68.5056 15.4301 67.7074 15.7176C66.9038 16.0051 66.0324 16.1488 65.0935 16.1488C64.1369 16.1488 63.2601 15.9845 62.4619 15.656C61.6583 15.3275 60.9657 14.8699 60.3849 14.2832C59.804 13.6907 59.3524 12.9837 59.0295 12.1624C58.7066 11.3411 58.5454 10.4347 58.5454 9.44321C58.5454 8.96213 58.5894 8.51041 58.6774 8.08801C58.7594 7.65973 58.8771 7.26081 59.0295 6.89121C59.1763 6.52161 59.3551 6.18133 59.5663 5.87041C59.7715 5.5595 60.0004 5.28374 60.2528 5.04321L61.5994 6.04641C61.6814 6.11093 61.7578 6.18721 61.8282 6.27521C61.8926 6.36321 61.9251 6.48641 61.9251 6.64481C61.9251 6.75041 61.9014 6.85013 61.8546 6.94401C61.8079 7.0379 61.7518 7.13761 61.6874 7.24321C61.617 7.34881 61.5439 7.46613 61.4674 7.59521C61.3854 7.71841 61.3117 7.86801 61.2474 8.04401C61.177 8.21413 61.1181 8.41653 61.0713 8.65121C61.0246 8.88001 61.0009 9.1499 61.0009 9.46081C61.0009 10.0005 61.0977 10.4933 61.2914 10.9392C61.4789 11.3851 61.7518 11.7693 62.1099 12.092C62.4619 12.4088 62.8904 12.6581 63.3949 12.84C63.8993 13.016 64.4658 13.104 65.0935 13.104C65.7508 13.104 66.3344 13.016 66.8449 12.84C67.3554 12.6581 67.7866 12.4147 68.1387 12.1096C68.4847 11.7987 68.7487 11.4379 68.9308 11.0272C69.1129 10.6165 69.2036 10.1765 69.2036 9.70721C69.2036 9.43733 69.1921 9.19093 69.1684 8.96801C69.1393 8.7451 69.092 8.53973 69.0276 8.35201C68.9632 8.15841 68.8807 7.97653 68.7812 7.80641C68.6755 7.63041 68.5463 7.45441 68.3939 7.27841C68.3351 7.20801 68.2883 7.13173 68.2531 7.04961C68.2118 6.9675 68.1915 6.88241 68.1915 6.79441Z" fill="#4ADE80"/>
<path d="M379 67.1001H338.845V77.0001H379V67.1001Z" fill="black"/>
<path d="M118.999 61.2613C120.642 61.2613 122.097 61.1205 123.365 60.8389C124.632 60.5573 125.829 60.1816 126.955 59.7125V51.9333H121.886C121.135 51.9333 120.548 51.7338 120.126 51.3349C119.703 50.936 119.492 50.4314 119.492 49.8213V43.2741H137.728V64.9221C136.414 65.884 135.041 66.7173 133.609 67.4213C132.201 68.1016 130.687 68.6648 129.068 69.1109C127.472 69.5569 125.758 69.8853 123.928 70.0965C122.121 70.3077 120.172 70.4133 118.084 70.4133C114.329 70.4133 110.855 69.756 107.663 68.4421C104.471 67.1045 101.702 65.2741 99.355 62.9509C97.0315 60.604 95.2008 57.8353 93.8631 54.6437C92.5489 51.4288 91.8916 47.944 91.8916 44.1893C91.8916 40.3642 92.5253 36.856 93.7926 33.6645C95.06 30.4496 96.867 27.6805 99.2142 25.3573C101.584 23.0341 104.436 21.2272 107.769 19.9365C111.125 18.6458 114.869 18.0005 118.999 18.0005C121.135 18.0005 123.142 18.1765 125.019 18.5285C126.897 18.8805 128.622 19.3616 130.194 19.9717C131.79 20.5818 133.246 21.3093 134.56 22.1541C135.874 22.9989 137.048 23.9141 138.08 24.8997L134.63 30.1445C134.302 30.6373 133.902 31.0245 133.433 31.3061C132.987 31.5877 132.494 31.7285 131.954 31.7285C131.25 31.7285 130.523 31.4938 129.772 31.0245C128.833 30.4613 127.941 29.9802 127.096 29.5813C126.275 29.1589 125.43 28.8186 124.562 28.5605C123.693 28.3024 122.778 28.1146 121.816 27.9973C120.853 27.88 119.774 27.8213 118.577 27.8213C116.347 27.8213 114.341 28.2202 112.557 29.0181C110.773 29.7925 109.247 30.8954 107.98 32.3269C106.736 33.7584 105.774 35.4832 105.093 37.5013C104.413 39.496 104.072 41.7253 104.072 44.1893C104.072 46.9114 104.448 49.3285 105.199 51.4405C105.95 53.5525 106.983 55.3361 108.297 56.7909C109.635 58.2456 111.207 59.3605 113.014 60.1349C114.845 60.8856 116.84 61.2613 118.999 61.2613ZM192.712 69.8501H183.488C182.456 69.8501 181.599 69.6152 180.918 69.1461C180.261 68.6533 179.803 68.0312 179.545 67.2805L176.518 58.3397H157.014L153.987 67.2805C153.752 67.9377 153.294 68.5361 152.614 69.0757C151.933 69.5921 151.1 69.8501 150.114 69.8501H140.82L160.675 18.5637H172.856L192.712 69.8501ZM159.76 50.2437H173.772L169.054 36.1989C168.749 35.3072 168.385 34.2629 167.963 33.0661C167.564 31.8458 167.165 30.5317 166.766 29.1237C166.39 30.5552 166.003 31.881 165.604 33.1013C165.205 34.3216 164.83 35.3776 164.478 36.2693L159.76 50.2437ZM223.115 46.4069C223.584 47.2986 224.03 48.2256 224.452 49.1877C224.899 50.1498 225.321 51.1354 225.72 52.1445C226.119 51.112 226.541 50.1146 226.987 49.1525C227.433 48.1669 227.891 47.2165 228.36 46.3013L241.527 20.3941C241.762 19.9482 241.996 19.608 242.231 19.3733C242.489 19.1152 242.77 18.9274 243.076 18.8101C243.381 18.6928 243.721 18.6224 244.097 18.5989C244.496 18.5754 244.953 18.5637 245.47 18.5637H254.552V69.8501H244.061V40.3525C244.061 38.921 244.132 37.3722 244.273 35.7061L230.684 62.0709C230.261 62.892 229.686 63.5141 228.959 63.9365C228.255 64.3589 227.445 64.5701 226.53 64.5701H224.91C223.995 64.5701 223.174 64.3589 222.446 63.9365C221.742 63.5141 221.178 62.892 220.756 62.0709L207.097 35.6709C207.191 36.4922 207.261 37.3136 207.308 38.1349C207.355 38.9328 207.378 39.672 207.378 40.3525V69.8501H196.887V18.5637H205.97C206.487 18.5637 206.932 18.5754 207.308 18.5989C207.707 18.6224 208.059 18.6928 208.364 18.8101C208.669 18.9274 208.939 19.1152 209.174 19.3733C209.432 19.608 209.678 19.9482 209.913 20.3941L223.115 46.4069ZM296.055 18.5637V27.7157H275.003V39.6837H291.127V48.4837H275.003V60.6981H296.055V69.8501H263.033V18.5637H296.055ZM331.431 28.9829C331.079 29.5461 330.703 29.9685 330.305 30.2501C329.929 30.5317 329.436 30.6725 328.826 30.6725C328.286 30.6725 327.699 30.5082 327.066 30.1797C326.456 29.8277 325.752 29.4405 324.954 29.0181C324.179 28.5957 323.287 28.2202 322.278 27.8917C321.269 27.5397 320.119 27.3637 318.828 27.3637C316.598 27.3637 314.932 27.8448 313.829 28.8069C312.749 29.7456 312.209 31.0245 312.209 32.6437C312.209 33.6762 312.538 34.5328 313.195 35.2133C313.852 35.8938 314.709 36.4805 315.765 36.9733C316.845 37.4661 318.065 37.9237 319.426 38.3461C320.811 38.745 322.219 39.2026 323.651 39.7189C325.083 40.2117 326.479 40.7984 327.84 41.4789C329.225 42.1594 330.445 43.0277 331.502 44.0837C332.581 45.1397 333.449 46.4304 334.107 47.9557C334.764 49.4576 335.092 51.2762 335.092 53.4117C335.092 55.7816 334.682 57.9992 333.86 60.0645C333.039 62.1297 331.842 63.9365 330.269 65.4853C328.72 67.0104 326.796 68.2193 324.496 69.1109C322.219 69.9793 319.626 70.4133 316.716 70.4133C315.12 70.4133 313.488 70.2488 311.822 69.9205C310.179 69.5921 308.583 69.1345 307.034 68.5477C305.485 67.9377 304.03 67.2216 302.669 66.4005C301.308 65.5793 300.123 64.6641 299.113 63.6549L302.634 58.0933C302.892 57.6709 303.256 57.3304 303.725 57.0725C304.194 56.8145 304.699 56.6853 305.239 56.6853C305.943 56.6853 306.647 56.908 307.351 57.3541C308.079 57.8001 308.889 58.2929 309.78 58.8325C310.696 59.372 311.74 59.8648 312.914 60.3109C314.087 60.7569 315.472 60.9797 317.068 60.9797C319.227 60.9797 320.905 60.5105 322.102 59.5717C323.299 58.6097 323.897 57.0961 323.897 55.0309C323.897 53.8341 323.569 52.8602 322.912 52.1093C322.254 51.3584 321.386 50.7365 320.307 50.2437C319.25 49.7509 318.042 49.3168 316.68 48.9413C315.319 48.5658 313.923 48.1552 312.491 47.7093C311.059 47.24 309.663 46.6768 308.302 46.0197C306.94 45.3392 305.72 44.4592 304.64 43.3797C303.584 42.2768 302.728 40.9157 302.07 39.2965C301.413 37.6538 301.085 35.6357 301.085 33.2421C301.085 31.3178 301.472 29.4405 302.247 27.6101C303.021 25.7797 304.159 24.1488 305.661 22.7173C307.164 21.2858 309.006 20.1477 311.189 19.3029C313.371 18.4346 315.871 18.0005 318.687 18.0005C320.26 18.0005 321.785 18.1296 323.264 18.3877C324.766 18.6224 326.186 18.9861 327.523 19.4789C328.861 19.9482 330.105 20.5232 331.255 21.2037C332.428 21.8608 333.473 22.6117 334.388 23.4565L331.431 28.9829Z" fill="black"/>
</g>
<path d="M0.96 108V96.344H5.248C6.05333 96.344 6.73867 96.4187 7.304 96.568C7.86933 96.7173 8.33067 96.928 8.688 97.2C9.04533 97.472 9.304 97.8027 9.464 98.192C9.62933 98.5813 9.712 99.016 9.712 99.496C9.712 99.7573 9.67467 100.011 9.6 100.256C9.52533 100.496 9.408 100.723 9.248 100.936C9.088 101.149 8.88267 101.344 8.632 101.52C8.38133 101.691 8.08 101.84 7.728 101.968C8.496 102.155 9.064 102.459 9.432 102.88C9.8 103.296 9.984 103.832 9.984 104.488C9.984 104.984 9.888 105.445 9.696 105.872C9.504 106.299 9.22133 106.672 8.848 106.992C8.48 107.307 8.024 107.555 7.48 107.736C6.936 107.912 6.31467 108 5.616 108H0.96ZM3.664 103.056V105.96H5.568C5.92533 105.96 6.216 105.915 6.44 105.824C6.66933 105.733 6.848 105.616 6.976 105.472C7.104 105.328 7.192 105.165 7.24 104.984C7.288 104.803 7.312 104.619 7.312 104.432C7.312 104.219 7.28267 104.027 7.224 103.856C7.17067 103.685 7.07467 103.541 6.936 103.424C6.80267 103.307 6.624 103.216 6.4 103.152C6.176 103.088 5.89333 103.056 5.552 103.056H3.664ZM3.664 101.248H5.072C5.37067 101.248 5.64 101.227 5.88 101.184C6.12 101.141 6.32267 101.067 6.488 100.96C6.65867 100.853 6.78667 100.707 6.872 100.52C6.96267 100.333 7.008 100.099 7.008 99.816C7.008 99.5387 6.97333 99.3093 6.904 99.128C6.83467 98.9413 6.728 98.792 6.584 98.68C6.44 98.568 6.256 98.488 6.032 98.44C5.81333 98.392 5.552 98.368 5.248 98.368H3.664V101.248ZM17.268 103.568V108H14.564V103.568L10.34 96.344H12.724C12.9587 96.344 13.1453 96.4 13.284 96.512C13.4227 96.6187 13.5347 96.7573 13.62 96.928L15.268 100.32C15.4013 100.592 15.524 100.843 15.636 101.072C15.748 101.301 15.8467 101.528 15.932 101.752C16.012 101.523 16.108 101.293 16.22 101.064C16.332 100.835 16.452 100.587 16.58 100.32L18.212 96.928C18.244 96.8587 18.2867 96.7893 18.34 96.72C18.3987 96.6507 18.4627 96.5893 18.532 96.536C18.6067 96.4773 18.6893 96.432 18.78 96.4C18.876 96.3627 18.98 96.344 19.092 96.344H21.492L17.268 103.568ZM30.3419 103.776C30.3419 104.427 30.2592 105.019 30.0939 105.552C29.9339 106.085 29.6885 106.544 29.3579 106.928C29.0325 107.307 28.6219 107.603 28.1259 107.816C27.6299 108.024 27.0459 108.128 26.3739 108.128C26.0699 108.128 25.7685 108.112 25.4699 108.08C25.1765 108.048 24.8699 107.995 24.5499 107.92L24.6939 106.344C24.7045 106.205 24.7579 106.093 24.8539 106.008C24.9552 105.923 25.0939 105.88 25.2699 105.88C25.3605 105.88 25.4725 105.896 25.6059 105.928C25.7392 105.955 25.8992 105.968 26.0859 105.968C26.3472 105.968 26.5739 105.933 26.7659 105.864C26.9632 105.789 27.1259 105.669 27.2539 105.504C27.3819 105.333 27.4779 105.112 27.5419 104.84C27.6059 104.568 27.6379 104.232 27.6379 103.832V96.344H30.3419V103.776ZM42.6986 108H40.6026C40.368 108 40.1733 107.947 40.0186 107.84C39.8693 107.728 39.7653 107.587 39.7066 107.416L39.0186 105.384H34.5866L33.8986 107.416C33.8453 107.565 33.7413 107.701 33.5866 107.824C33.432 107.941 33.2426 108 33.0186 108H30.9066L35.4186 96.344H38.1866L42.6986 108ZM35.2106 103.544H38.3946L37.3226 100.352C37.2533 100.149 37.1706 99.912 37.0746 99.64C36.984 99.3627 36.8933 99.064 36.8026 98.744C36.7173 99.0693 36.6293 99.3707 36.5386 99.648C36.448 99.9253 36.3626 100.165 36.2826 100.368L35.2106 103.544ZM45.0715 96.344C45.1888 96.344 45.2875 96.3493 45.3675 96.36C45.4475 96.3707 45.5195 96.392 45.5835 96.424C45.6475 96.4507 45.7088 96.4907 45.7675 96.544C45.8262 96.5973 45.8928 96.6693 45.9675 96.76L51.5035 103.76C51.4822 103.536 51.4662 103.32 51.4555 103.112C51.4448 102.899 51.4395 102.699 51.4395 102.512V96.344H53.8235V108H52.4155C52.2075 108 52.0315 107.968 51.8875 107.904C51.7435 107.84 51.6048 107.723 51.4715 107.552L45.9755 100.608C45.9915 100.811 46.0048 101.011 46.0155 101.208C46.0262 101.4 46.0315 101.581 46.0315 101.752V108H43.6475V96.344H45.0715ZM58.7013 108H55.9813V96.344H58.7013V108ZM68.3703 96.344V98.424H63.5863V101.144H67.2503V103.144H63.5863V105.92H68.3703V108H60.8663V96.344H68.3703ZM77.7451 104.984C77.8091 104.984 77.8731 104.997 77.9371 105.024C78.0011 105.045 78.0625 105.085 78.1211 105.144L79.1931 106.272C78.7238 106.885 78.1345 107.349 77.4251 107.664C76.7211 107.973 75.8865 108.128 74.9211 108.128C74.0358 108.128 73.2411 107.979 72.5371 107.68C71.8385 107.376 71.2438 106.96 70.7531 106.432C70.2678 105.899 69.8945 105.269 69.6331 104.544C69.3718 103.813 69.2411 103.021 69.2411 102.168C69.2411 101.299 69.3905 100.501 69.6891 99.776C69.9878 99.0453 70.4038 98.416 70.9371 97.888C71.4758 97.36 72.1185 96.9493 72.8651 96.656C73.6118 96.3627 74.4358 96.216 75.3371 96.216C75.7745 96.216 76.1851 96.256 76.5691 96.336C76.9585 96.4107 77.3211 96.5173 77.6571 96.656C77.9931 96.7893 78.3025 96.952 78.5851 97.144C78.8678 97.3307 79.1185 97.5387 79.3371 97.768L78.4251 98.992C78.3665 99.0667 78.2971 99.136 78.2171 99.2C78.1371 99.2587 78.0251 99.288 77.8811 99.288C77.7851 99.288 77.6945 99.2667 77.6091 99.224C77.5238 99.1813 77.4331 99.1307 77.3371 99.072C77.2411 99.008 77.1345 98.9413 77.0171 98.872C76.9051 98.7973 76.7691 98.7307 76.6091 98.672C76.4545 98.608 76.2705 98.5547 76.0571 98.512C75.8491 98.4693 75.6038 98.448 75.3211 98.448C74.8305 98.448 74.3825 98.536 73.9771 98.712C73.5718 98.8827 73.2225 99.1307 72.9291 99.456C72.6411 99.776 72.4145 100.165 72.2491 100.624C72.0891 101.083 72.0091 101.597 72.0091 102.168C72.0091 102.765 72.0891 103.296 72.2491 103.76C72.4145 104.224 72.6358 104.616 72.9131 104.936C73.1958 105.251 73.5238 105.491 73.8971 105.656C74.2705 105.821 74.6705 105.904 75.0971 105.904C75.3425 105.904 75.5665 105.893 75.7691 105.872C75.9718 105.845 76.1585 105.803 76.3291 105.744C76.5051 105.685 76.6705 105.611 76.8251 105.52C76.9851 105.424 77.1451 105.307 77.3051 105.168C77.3691 105.115 77.4385 105.072 77.5131 105.04C77.5878 105.003 77.6651 104.984 77.7451 104.984ZM82.5648 103.712V108H81.0208V96.536H84.4048C85.1301 96.536 85.7594 96.6213 86.2928 96.792C86.8314 96.9573 87.2768 97.1947 87.6288 97.504C87.9808 97.8133 88.2421 98.1867 88.4128 98.624C88.5888 99.0613 88.6768 99.5493 88.6768 100.088C88.6768 100.621 88.5834 101.109 88.3968 101.552C88.2101 101.995 87.9354 102.376 87.5728 102.696C87.2154 103.016 86.7701 103.267 86.2368 103.448C85.7034 103.624 85.0928 103.712 84.4048 103.712H82.5648ZM82.5648 102.48H84.4048C84.8474 102.48 85.2368 102.421 85.5728 102.304C85.9141 102.187 86.1994 102.024 86.4288 101.816C86.6581 101.603 86.8314 101.349 86.9488 101.056C87.0661 100.763 87.1248 100.44 87.1248 100.088C87.1248 99.3573 86.8981 98.7867 86.4448 98.376C85.9968 97.9653 85.3168 97.76 84.4048 97.76H82.5648V102.48ZM98.9646 108H97.7646C97.626 108 97.514 107.965 97.4286 107.896C97.3433 107.827 97.2793 107.739 97.2366 107.632L96.1646 104.864H91.0206L89.9486 107.632C89.9113 107.728 89.8473 107.813 89.7566 107.888C89.666 107.963 89.554 108 89.4206 108H88.2206L92.8046 96.536H94.3806L98.9646 108ZM91.4526 103.744H95.7326L93.9326 99.08C93.8153 98.792 93.7006 98.432 93.5886 98C93.53 98.2187 93.4713 98.4213 93.4126 98.608C93.3593 98.7893 93.306 98.9493 93.2526 99.088L91.4526 103.744ZM102.112 103.216V108H100.568V96.536H103.808C104.533 96.536 105.16 96.6107 105.688 96.76C106.216 96.904 106.65 97.1147 106.992 97.392C107.338 97.6693 107.594 98.0053 107.76 98.4C107.925 98.7893 108.008 99.2267 108.008 99.712C108.008 100.117 107.944 100.496 107.816 100.848C107.688 101.2 107.501 101.517 107.256 101.8C107.016 102.077 106.72 102.315 106.368 102.512C106.021 102.709 105.626 102.859 105.184 102.96C105.376 103.072 105.546 103.235 105.696 103.448L109.04 108H107.664C107.381 108 107.173 107.891 107.04 107.672L104.064 103.576C103.973 103.448 103.874 103.357 103.768 103.304C103.661 103.245 103.501 103.216 103.288 103.216H102.112ZM102.112 102.088H103.736C104.189 102.088 104.586 102.035 104.928 101.928C105.274 101.816 105.562 101.661 105.792 101.464C106.026 101.261 106.202 101.021 106.32 100.744C106.437 100.467 106.496 100.16 106.496 99.824C106.496 99.1413 106.269 98.6267 105.816 98.28C105.368 97.9333 104.698 97.76 103.808 97.76H102.112V102.088ZM120.137 108H118.937C118.798 108 118.686 107.965 118.601 107.896C118.515 107.827 118.451 107.739 118.409 107.632L117.337 104.864H112.193L111.121 107.632C111.083 107.728 111.019 107.813 110.929 107.888C110.838 107.963 110.726 108 110.593 108H109.393L113.977 96.536H115.553L120.137 108ZM112.625 103.744H116.905L115.105 99.08C114.987 98.792 114.873 98.432 114.761 98C114.702 98.2187 114.643 98.4213 114.585 98.608C114.531 98.7893 114.478 98.9493 114.425 99.088L112.625 103.744ZM131.516 102.272C131.516 103.131 131.38 103.912 131.108 104.616C130.836 105.32 130.452 105.923 129.956 106.424C129.46 106.925 128.865 107.315 128.172 107.592C127.478 107.864 126.71 108 125.868 108H121.58V96.536H125.868C126.71 96.536 127.478 96.6747 128.172 96.952C128.865 97.224 129.46 97.6133 129.956 98.12C130.452 98.6213 130.836 99.224 131.108 99.928C131.38 100.632 131.516 101.413 131.516 102.272ZM129.924 102.272C129.924 101.568 129.828 100.939 129.636 100.384C129.444 99.8293 129.172 99.36 128.819 98.976C128.468 98.592 128.041 98.2987 127.54 98.096C127.038 97.8933 126.481 97.792 125.868 97.792H123.14V106.744H125.868C126.481 106.744 127.038 106.643 127.54 106.44C128.041 106.237 128.468 105.947 128.819 105.568C129.172 105.184 129.444 104.715 129.636 104.16C129.828 103.605 129.924 102.976 129.924 102.272ZM142.715 108H141.515C141.376 108 141.264 107.965 141.179 107.896C141.093 107.827 141.029 107.739 140.987 107.632L139.915 104.864H134.771L133.699 107.632C133.661 107.728 133.597 107.813 133.507 107.888C133.416 107.963 133.304 108 133.171 108H131.971L136.555 96.536H138.131L142.715 108ZM135.203 103.744H139.483L137.683 99.08C137.565 98.792 137.451 98.432 137.339 98C137.28 98.2187 137.221 98.4213 137.163 98.608C137.109 98.7893 137.056 98.9493 137.003 99.088L135.203 103.744ZM145.998 108H144.446V96.536H145.998V108ZM154.936 98.328C154.888 98.408 154.837 98.4693 154.784 98.512C154.731 98.5493 154.661 98.568 154.576 98.568C154.485 98.568 154.379 98.5227 154.256 98.432C154.139 98.3413 153.987 98.2427 153.8 98.136C153.619 98.024 153.397 97.9227 153.136 97.832C152.88 97.7413 152.568 97.696 152.2 97.696C151.853 97.696 151.547 97.744 151.28 97.84C151.013 97.9307 150.789 98.056 150.608 98.216C150.432 98.376 150.299 98.5653 150.208 98.784C150.117 98.9973 150.072 99.2293 150.072 99.48C150.072 99.8 150.149 100.067 150.304 100.28C150.464 100.488 150.672 100.667 150.928 100.816C151.189 100.965 151.483 101.096 151.808 101.208C152.139 101.315 152.475 101.427 152.816 101.544C153.163 101.661 153.499 101.795 153.824 101.944C154.155 102.088 154.448 102.272 154.704 102.496C154.965 102.72 155.173 102.995 155.328 103.32C155.488 103.645 155.568 104.045 155.568 104.52C155.568 105.021 155.483 105.493 155.312 105.936C155.141 106.373 154.891 106.755 154.56 107.08C154.235 107.405 153.832 107.661 153.352 107.848C152.877 108.035 152.336 108.128 151.728 108.128C150.987 108.128 150.309 107.995 149.696 107.728C149.088 107.456 148.568 107.091 148.136 106.632L148.584 105.896C148.627 105.837 148.677 105.789 148.736 105.752C148.8 105.709 148.869 105.688 148.944 105.688C149.056 105.688 149.184 105.749 149.328 105.872C149.472 105.989 149.651 106.12 149.864 106.264C150.083 106.408 150.344 106.541 150.648 106.664C150.957 106.781 151.333 106.84 151.776 106.84C152.144 106.84 152.472 106.789 152.76 106.688C153.048 106.587 153.291 106.445 153.488 106.264C153.691 106.077 153.845 105.856 153.952 105.6C154.059 105.344 154.112 105.059 154.112 104.744C154.112 104.397 154.032 104.115 153.872 103.896C153.717 103.672 153.512 103.485 153.256 103.336C153 103.187 152.707 103.061 152.376 102.96C152.051 102.853 151.715 102.747 151.368 102.64C151.027 102.528 150.691 102.4 150.36 102.256C150.035 102.112 149.744 101.925 149.488 101.696C149.232 101.467 149.024 101.181 148.864 100.84C148.709 100.493 148.632 100.067 148.632 99.56C148.632 99.1547 148.709 98.7627 148.864 98.384C149.024 98.0053 149.253 97.6693 149.552 97.376C149.851 97.0827 150.219 96.848 150.656 96.672C151.099 96.496 151.605 96.408 152.176 96.408C152.816 96.408 153.4 96.5093 153.928 96.712C154.456 96.9147 154.917 97.208 155.312 97.592L154.936 98.328ZM164.612 96.536V97.8H159.108V101.608H163.564V102.824H159.108V106.736H164.612V108H157.548V96.536H164.612Z" fill="black"/>
<defs>
<clipPath id="clip0_0_1">
<rect width="379" height="77" fill="white"/>
</clipPath>
</defs>
</svg>
