<svg width="371" height="151" viewBox="0 0 371 151" fill="none" xmlns="http://www.w3.org/2000/svg">
<g filter="url(#filter0_d_0_1)">
<path d="M132.381 4H188V77H132.381L105.483 56.386L91 25.3705L132.381 4Z" fill="black"/>
</g>
<g filter="url(#filter1_d_0_1)">
<path d="M242.619 4H187V77H242.619L269.517 56.386L284 25.3705L242.619 4Z" fill="black"/>
</g>
<circle cx="151.5" cy="38.5" r="16.5" fill="#4ADE80"/>
<circle cx="161.5" cy="22.5" r="16.5" fill="black"/>
<circle cx="16.5" cy="16.5" r="16.5" transform="matrix(-1 0 0 1 239 22)" fill="#4ADE80"/>
<circle cx="16.5" cy="16.5" r="16.5" transform="matrix(-1 0 0 1 229 6)" fill="black"/>
<circle cx="151.5" cy="45.5" r="6.5" fill="black"/>
<circle cx="222.5" cy="45.5" r="6.5" fill="black"/>
<g filter="url(#filter2_d_0_1)">
<path d="M26.1818 99.4545H38.6364V131.364C38.6212 134.394 37.8561 137.061 36.3409 139.364C34.8409 141.652 32.7652 143.439 30.1136 144.727C27.4773 146 24.4394 146.636 21 146.636C18.0152 146.636 15.2879 146.121 12.8182 145.091C10.3485 144.045 8.37879 142.409 6.90909 140.182C5.43939 137.939 4.71212 135.03 4.72727 131.455H17.3636C17.4091 132.621 17.6061 133.606 17.9545 134.409C18.3182 135.212 18.8182 135.818 19.4545 136.227C20.1061 136.621 20.8939 136.818 21.8182 136.818C22.7576 136.818 23.5455 136.614 24.1818 136.205C24.8333 135.795 25.3258 135.189 25.6591 134.386C25.9924 133.568 26.1667 132.561 26.1818 131.364V99.4545ZM56.7159 146H43.0795L58.4432 99.4545H75.7159L91.0795 146H77.4432L67.2614 112.273H66.8977L56.7159 146ZM54.1705 127.636H79.8068V137.091H54.1705V127.636ZM135.835 99.4545V146H125.29L108.472 121.545H108.199V146H95.5625V99.4545H106.29L122.835 123.818H123.199V99.4545H135.835ZM154.449 99.4545V146H141.812V99.4545H154.449ZM160.438 146V99.4545H193.983V109.636H173.074V117.636H192.256V127.818H173.074V135.818H193.892V146H160.438ZM243.705 116.909H230.886C230.795 115.848 230.553 114.886 230.159 114.023C229.78 113.159 229.25 112.417 228.568 111.795C227.902 111.159 227.091 110.674 226.136 110.341C225.182 109.992 224.098 109.818 222.886 109.818C220.765 109.818 218.97 110.333 217.5 111.364C216.045 112.394 214.939 113.871 214.182 115.795C213.439 117.72 213.068 120.03 213.068 122.727C213.068 125.576 213.447 127.962 214.205 129.886C214.977 131.795 216.091 133.235 217.545 134.205C219 135.159 220.75 135.636 222.795 135.636C223.962 135.636 225.008 135.492 225.932 135.205C226.856 134.902 227.659 134.47 228.341 133.909C229.023 133.348 229.576 132.674 230 131.886C230.439 131.083 230.735 130.182 230.886 129.182L243.705 129.273C243.553 131.242 243 133.25 242.045 135.295C241.091 137.326 239.735 139.205 237.977 140.932C236.235 142.644 234.076 144.023 231.5 145.068C228.924 146.114 225.932 146.636 222.523 146.636C218.25 146.636 214.417 145.72 211.023 143.886C207.644 142.053 204.97 139.356 203 135.795C201.045 132.235 200.068 127.879 200.068 122.727C200.068 117.545 201.068 113.182 203.068 109.636C205.068 106.076 207.765 103.386 211.159 101.568C214.553 99.7348 218.341 98.8182 222.523 98.8182C225.462 98.8182 228.167 99.2197 230.636 100.023C233.106 100.826 235.273 102 237.136 103.545C239 105.076 240.5 106.962 241.636 109.205C242.773 111.447 243.462 114.015 243.705 116.909ZM252.074 146V99.4545H257.71V141H279.347V146H252.074ZM292.92 146H287.011L304.102 99.4545H309.92L327.011 146H321.102L307.193 106.818H306.83L292.92 146ZM295.102 127.818H318.92V132.818H295.102V127.818ZM334.261 146V99.4545H350.534C353.777 99.4545 356.451 100.015 358.557 101.136C360.663 102.242 362.231 103.735 363.261 105.614C364.292 107.477 364.807 109.545 364.807 111.818C364.807 113.818 364.451 115.47 363.739 116.773C363.042 118.076 362.117 119.106 360.966 119.864C359.83 120.621 358.595 121.182 357.261 121.545V122C358.686 122.091 360.117 122.591 361.557 123.5C362.996 124.409 364.201 125.712 365.17 127.409C366.14 129.106 366.625 131.182 366.625 133.636C366.625 135.97 366.095 138.068 365.034 139.932C363.973 141.795 362.299 143.273 360.011 144.364C357.723 145.455 354.746 146 351.08 146H334.261ZM339.898 141H351.08C354.761 141 357.375 140.288 358.92 138.864C360.481 137.424 361.261 135.682 361.261 133.636C361.261 132.061 360.86 130.606 360.057 129.273C359.254 127.924 358.11 126.848 356.625 126.045C355.14 125.227 353.383 124.818 351.352 124.818H339.898V141ZM339.898 119.909H350.352C352.049 119.909 353.58 119.576 354.943 118.909C356.322 118.242 357.413 117.303 358.216 116.091C359.034 114.879 359.443 113.455 359.443 111.818C359.443 109.773 358.731 108.038 357.307 106.614C355.883 105.174 353.625 104.455 350.534 104.455H339.898V119.909Z" fill="black"/>
</g>
<defs>
<filter id="filter0_d_0_1" x="87" y="0" width="105" height="81" filterUnits="userSpaceOnUse" color-interpolation-filters="sRGB">
<feFlood flood-opacity="0" result="BackgroundImageFix"/>
<feColorMatrix in="SourceAlpha" type="matrix" values="0 0 0 0 0 0 0 0 0 0 0 0 0 0 0 0 0 0 127 0" result="hardAlpha"/>
<feOffset/>
<feGaussianBlur stdDeviation="2"/>
<feComposite in2="hardAlpha" operator="out"/>
<feColorMatrix type="matrix" values="0 0 0 0 0 0 0 0 0 0 0 0 0 0 0 0 0 0 0.25 0"/>
<feBlend mode="normal" in2="BackgroundImageFix" result="effect1_dropShadow_0_1"/>
<feBlend mode="normal" in="SourceGraphic" in2="effect1_dropShadow_0_1" result="shape"/>
</filter>
<filter id="filter1_d_0_1" x="183" y="0" width="105" height="81" filterUnits="userSpaceOnUse" color-interpolation-filters="sRGB">
<feFlood flood-opacity="0" result="BackgroundImageFix"/>
<feColorMatrix in="SourceAlpha" type="matrix" values="0 0 0 0 0 0 0 0 0 0 0 0 0 0 0 0 0 0 127 0" result="hardAlpha"/>
<feOffset/>
<feGaussianBlur stdDeviation="2"/>
<feComposite in2="hardAlpha" operator="out"/>
<feColorMatrix type="matrix" values="0 0 0 0 0 0 0 0 0 0 0 0 0 0 0 0 0 0 0.25 0"/>
<feBlend mode="normal" in2="BackgroundImageFix" result="effect1_dropShadow_0_1"/>
<feBlend mode="normal" in="SourceGraphic" in2="effect1_dropShadow_0_1" result="shape"/>
</filter>
<filter id="filter2_d_0_1" x="0.70459" y="94.8181" width="369.92" height="55.8184" filterUnits="userSpaceOnUse" color-interpolation-filters="sRGB">
<feFlood flood-opacity="0" result="BackgroundImageFix"/>
<feColorMatrix in="SourceAlpha" type="matrix" values="0 0 0 0 0 0 0 0 0 0 0 0 0 0 0 0 0 0 127 0" result="hardAlpha"/>
<feOffset/>
<feGaussianBlur stdDeviation="2"/>
<feComposite in2="hardAlpha" operator="out"/>
<feColorMatrix type="matrix" values="0 0 0 0 0 0 0 0 0 0 0 0 0 0 0 0 0 0 0.25 0"/>
<feBlend mode="normal" in2="BackgroundImageFix" result="effect1_dropShadow_0_1"/>
<feBlend mode="normal" in="SourceGraphic" in2="effect1_dropShadow_0_1" result="shape"/>
</filter>
</defs>
</svg>
