<svg width="363" height="148" viewBox="0 0 363 148" fill="none" xmlns="http://www.w3.org/2000/svg">
<rect x="95" width="177" height="80" rx="40" fill="black"/>
<circle cx="147.5" cy="39.5" r="16.5" fill="#4ADE80"/>
<circle cx="157.5" cy="23.5" r="16.5" fill="black"/>
<circle cx="16.5" cy="16.5" r="16.5" transform="matrix(-1 0 0 1 235 23)" fill="#4ADE80"/>
<circle cx="16.5" cy="16.5" r="16.5" transform="matrix(-1 0 0 1 225 7)" fill="black"/>
<circle cx="147.5" cy="46.5" r="6.5" fill="black"/>
<circle cx="218.5" cy="46.5" r="6.5" fill="black"/>
<path d="M22.1818 100.455H34.6364V132.364C34.6212 135.394 33.8561 138.061 32.3409 140.364C30.8409 142.652 28.7652 144.439 26.1136 145.727C23.4773 147 20.4394 147.636 17 147.636C14.0152 147.636 11.2879 147.121 8.81818 146.091C6.34848 145.045 4.37879 143.409 2.90909 141.182C1.43939 138.939 0.712121 136.03 0.727273 132.455H13.3636C13.4091 133.621 13.6061 134.606 13.9545 135.409C14.3182 136.212 14.8182 136.818 15.4545 137.227C16.1061 137.621 16.8939 137.818 17.8182 137.818C18.7576 137.818 19.5455 137.614 20.1818 137.205C20.8333 136.795 21.3258 136.189 21.6591 135.386C21.9924 134.568 22.1667 133.561 22.1818 132.364V100.455ZM52.7159 147H39.0795L54.4432 100.455H71.7159L87.0795 147H73.4432L63.2614 113.273H62.8977L52.7159 147ZM50.1705 128.636H75.8068V138.091H50.1705V128.636ZM131.835 100.455V147H121.29L104.472 122.545H104.199V147H91.5625V100.455H102.29L118.835 124.818H119.199V100.455H131.835ZM150.449 100.455V147H137.812V100.455H150.449ZM156.438 147V100.455H189.983V110.636H169.074V118.636H188.256V128.818H169.074V136.818H189.892V147H156.438ZM239.705 117.909H226.886C226.795 116.848 226.553 115.886 226.159 115.023C225.78 114.159 225.25 113.417 224.568 112.795C223.902 112.159 223.091 111.674 222.136 111.341C221.182 110.992 220.098 110.818 218.886 110.818C216.765 110.818 214.97 111.333 213.5 112.364C212.045 113.394 210.939 114.871 210.182 116.795C209.439 118.72 209.068 121.03 209.068 123.727C209.068 126.576 209.447 128.962 210.205 130.886C210.977 132.795 212.091 134.235 213.545 135.205C215 136.159 216.75 136.636 218.795 136.636C219.962 136.636 221.008 136.492 221.932 136.205C222.856 135.902 223.659 135.47 224.341 134.909C225.023 134.348 225.576 133.674 226 132.886C226.439 132.083 226.735 131.182 226.886 130.182L239.705 130.273C239.553 132.242 239 134.25 238.045 136.295C237.091 138.326 235.735 140.205 233.977 141.932C232.235 143.644 230.076 145.023 227.5 146.068C224.924 147.114 221.932 147.636 218.523 147.636C214.25 147.636 210.417 146.72 207.023 144.886C203.644 143.053 200.97 140.356 199 136.795C197.045 133.235 196.068 128.879 196.068 123.727C196.068 118.545 197.068 114.182 199.068 110.636C201.068 107.076 203.765 104.386 207.159 102.568C210.553 100.735 214.341 99.8182 218.523 99.8182C221.462 99.8182 224.167 100.22 226.636 101.023C229.106 101.826 231.273 103 233.136 104.545C235 106.076 236.5 107.962 237.636 110.205C238.773 112.447 239.462 115.015 239.705 117.909ZM248.074 147V100.455H253.71V142H275.347V147H248.074ZM288.92 147H283.011L300.102 100.455H305.92L323.011 147H317.102L303.193 107.818H302.83L288.92 147ZM291.102 128.818H314.92V133.818H291.102V128.818ZM330.261 147V100.455H346.534C349.777 100.455 352.451 101.015 354.557 102.136C356.663 103.242 358.231 104.735 359.261 106.614C360.292 108.477 360.807 110.545 360.807 112.818C360.807 114.818 360.451 116.47 359.739 117.773C359.042 119.076 358.117 120.106 356.966 120.864C355.83 121.621 354.595 122.182 353.261 122.545V123C354.686 123.091 356.117 123.591 357.557 124.5C358.996 125.409 360.201 126.712 361.17 128.409C362.14 130.106 362.625 132.182 362.625 134.636C362.625 136.97 362.095 139.068 361.034 140.932C359.973 142.795 358.299 144.273 356.011 145.364C353.723 146.455 350.746 147 347.08 147H330.261ZM335.898 142H347.08C350.761 142 353.375 141.288 354.92 139.864C356.481 138.424 357.261 136.682 357.261 134.636C357.261 133.061 356.86 131.606 356.057 130.273C355.254 128.924 354.11 127.848 352.625 127.045C351.14 126.227 349.383 125.818 347.352 125.818H335.898V142ZM335.898 120.909H346.352C348.049 120.909 349.58 120.576 350.943 119.909C352.322 119.242 353.413 118.303 354.216 117.091C355.034 115.879 355.443 114.455 355.443 112.818C355.443 110.773 354.731 109.038 353.307 107.614C351.883 106.174 349.625 105.455 346.534 105.455H335.898V120.909Z" fill="black"/>
</svg>
