<svg width="379" height="77" viewBox="0 0 379 77" fill="none" xmlns="http://www.w3.org/2000/svg">
<g clip-path="url(#clip0_6_12)">
<path d="M77.0102 0H0V77H77.0102V0Z" fill="#4ADE80"/>
<path d="M66.8625 58.938C67.5782 58.938 68.2294 59.0287 68.8164 59.2108C69.4033 59.3868 69.9077 59.6568 70.3302 60.0204C70.7466 60.3784 71.0722 60.83 71.3071 61.3756C71.5359 61.9212 71.6503 62.5636 71.6503 63.3028C71.6503 63.6372 71.6327 63.9688 71.5975 64.2972C71.5623 64.62 71.5035 64.9572 71.4215 65.3092L69.6877 65.1508C69.5353 65.1392 69.4121 65.0804 69.318 64.9748C69.224 64.8631 69.1772 64.7108 69.1772 64.5172C69.1772 64.4176 69.1948 64.2944 69.23 64.1476C69.2592 64.0007 69.274 63.8247 69.274 63.6196C69.274 63.3319 69.2361 63.0828 69.1596 62.8716C69.0776 62.6543 68.9456 62.4756 68.7636 62.3348C68.576 62.194 68.3323 62.0884 68.0331 62.018C67.7338 61.9476 67.3642 61.9124 66.9241 61.9124H58.6862V58.938H66.8625ZM71.5095 45.3456V47.6512C71.5095 47.9093 71.4507 48.1235 71.3335 48.2936C71.2103 48.4578 71.0546 48.5722 70.867 48.6368L68.6315 49.3936V54.2688L70.867 55.0253C71.0315 55.0841 71.1811 55.1985 71.3159 55.3685C71.4452 55.539 71.5095 55.7469 71.5095 55.9933V58.3165L58.6862 53.3536V50.3088L71.5095 45.3456ZM66.6073 53.5824V50.08L63.0956 51.2592C62.8728 51.3354 62.6115 51.4264 62.3123 51.532C62.007 51.6317 61.6786 51.7314 61.3266 51.8312C61.6847 51.925 62.0158 52.0219 62.3211 52.1216C62.6264 52.2213 62.8904 52.3152 63.1132 52.4032L66.6073 53.5824ZM58.6862 42.7354C58.6862 42.6063 58.6923 42.4978 58.7038 42.4098C58.7154 42.3218 58.739 42.2426 58.7742 42.1722C58.8034 42.1018 58.8474 42.0343 58.9063 41.9698C58.9651 41.9053 59.0443 41.8319 59.1439 41.7498L66.8449 35.6602C66.5985 35.6837 66.3608 35.7013 66.132 35.713C65.8971 35.7247 65.6771 35.7306 65.4719 35.7306H58.6862V33.1082H71.5095V34.657C71.5095 34.8858 71.4743 35.0794 71.4039 35.2378C71.3335 35.3962 71.2042 35.5487 71.0167 35.6954L63.3773 41.741C63.6 41.7234 63.8201 41.7087 64.0373 41.697C64.2486 41.6853 64.4482 41.6794 64.6358 41.6794H71.5095V44.3018H58.6862V42.7354ZM71.5095 27.7426V30.7346H58.6862V27.7426H71.5095ZM58.6862 17.1067H60.9745V22.3691H63.9669V18.3387H66.1672V22.3691H69.2212V17.1067H71.5095V25.3611H58.6862V17.1067ZM68.1915 6.79441C68.1915 6.72401 68.2063 6.65361 68.2355 6.58321C68.2591 6.51281 68.3032 6.44533 68.3675 6.38081L69.6085 5.20161C70.2834 5.7179 70.7939 6.36613 71.1399 7.14641C71.4804 7.92081 71.6503 8.83893 71.6503 9.90081C71.6503 10.8747 71.4859 11.7488 71.1575 12.5232C70.823 13.2917 70.3654 13.9459 69.7845 14.4856C69.1976 15.0195 68.5056 15.4301 67.7074 15.7176C66.9038 16.0051 66.0324 16.1488 65.0935 16.1488C64.1369 16.1488 63.2601 15.9845 62.4619 15.656C61.6583 15.3275 60.9657 14.8699 60.3849 14.2832C59.804 13.6907 59.3524 12.9837 59.0295 12.1624C58.7066 11.3411 58.5454 10.4347 58.5454 9.44321C58.5454 8.96213 58.5894 8.51041 58.6774 8.08801C58.7594 7.65973 58.8771 7.26081 59.0295 6.89121C59.1763 6.52161 59.3551 6.18133 59.5663 5.87041C59.7715 5.5595 60.0004 5.28374 60.2528 5.04321L61.5994 6.04641C61.6814 6.11093 61.7578 6.18721 61.8282 6.27521C61.8926 6.36321 61.9251 6.48641 61.9251 6.64481C61.9251 6.75041 61.9014 6.85013 61.8546 6.94401C61.8079 7.0379 61.7518 7.13761 61.6874 7.24321C61.617 7.34881 61.5439 7.46613 61.4674 7.59521C61.3854 7.71841 61.3117 7.86801 61.2474 8.04401C61.177 8.21413 61.1181 8.41653 61.0713 8.65121C61.0246 8.88001 61.0009 9.1499 61.0009 9.46081C61.0009 10.0005 61.0977 10.4933 61.2914 10.9392C61.4789 11.3851 61.7518 11.7693 62.1099 12.092C62.4619 12.4088 62.8904 12.6581 63.3949 12.84C63.8993 13.016 64.4658 13.104 65.0935 13.104C65.7508 13.104 66.3344 13.016 66.8449 12.84C67.3554 12.6581 67.7866 12.4147 68.1387 12.1096C68.4847 11.7987 68.7487 11.4379 68.9308 11.0272C69.1129 10.6165 69.2036 10.1765 69.2036 9.70721C69.2036 9.43733 69.1921 9.19093 69.1684 8.96801C69.1393 8.7451 69.092 8.53973 69.0276 8.35201C68.9632 8.15841 68.8807 7.97653 68.7812 7.80641C68.6755 7.63041 68.5463 7.45441 68.3939 7.27841C68.3351 7.20801 68.2883 7.13173 68.2531 7.04961C68.2118 6.9675 68.1915 6.88241 68.1915 6.79441Z" fill="black"/>
<path d="M379 67.1001H338.845V77.0001H379V67.1001Z" fill="#4ADE80"/>
<path d="M118.999 61.2613C120.642 61.2613 122.097 61.1205 123.365 60.8389C124.632 60.5573 125.829 60.1816 126.955 59.7125V51.9333H121.886C121.135 51.9333 120.548 51.7338 120.126 51.3349C119.703 50.936 119.492 50.4314 119.492 49.8213V43.2741H137.728V64.9221C136.414 65.884 135.041 66.7173 133.609 67.4213C132.201 68.1016 130.687 68.6648 129.068 69.1109C127.472 69.5569 125.758 69.8853 123.928 70.0965C122.121 70.3077 120.172 70.4133 118.084 70.4133C114.329 70.4133 110.855 69.756 107.663 68.4421C104.471 67.1045 101.702 65.2741 99.355 62.9509C97.0315 60.604 95.2008 57.8353 93.8631 54.6437C92.5489 51.4288 91.8916 47.944 91.8916 44.1893C91.8916 40.3642 92.5253 36.856 93.7926 33.6645C95.06 30.4496 96.867 27.6805 99.2142 25.3573C101.584 23.0341 104.436 21.2272 107.769 19.9365C111.125 18.6458 114.869 18.0005 118.999 18.0005C121.135 18.0005 123.142 18.1765 125.019 18.5285C126.897 18.8805 128.622 19.3616 130.194 19.9717C131.79 20.5818 133.246 21.3093 134.56 22.1541C135.874 22.9989 137.048 23.9141 138.08 24.8997L134.63 30.1445C134.302 30.6373 133.902 31.0245 133.433 31.3061C132.987 31.5877 132.494 31.7285 131.954 31.7285C131.25 31.7285 130.523 31.4938 129.772 31.0245C128.833 30.4613 127.941 29.9802 127.096 29.5813C126.275 29.1589 125.43 28.8186 124.562 28.5605C123.693 28.3024 122.778 28.1146 121.816 27.9973C120.853 27.88 119.774 27.8213 118.577 27.8213C116.347 27.8213 114.341 28.2202 112.557 29.0181C110.773 29.7925 109.247 30.8954 107.98 32.3269C106.736 33.7584 105.774 35.4832 105.093 37.5013C104.413 39.496 104.072 41.7253 104.072 44.1893C104.072 46.9114 104.448 49.3285 105.199 51.4405C105.95 53.5525 106.983 55.3361 108.297 56.7909C109.635 58.2456 111.207 59.3605 113.014 60.1349C114.845 60.8856 116.84 61.2613 118.999 61.2613ZM192.712 69.8501H183.488C182.456 69.8501 181.599 69.6152 180.918 69.1461C180.261 68.6533 179.803 68.0312 179.545 67.2805L176.518 58.3397H157.014L153.987 67.2805C153.752 67.9377 153.294 68.5361 152.614 69.0757C151.933 69.5921 151.1 69.8501 150.114 69.8501H140.82L160.675 18.5637H172.856L192.712 69.8501ZM159.76 50.2437H173.772L169.054 36.1989C168.749 35.3072 168.385 34.2629 167.963 33.0661C167.564 31.8458 167.165 30.5317 166.766 29.1237C166.39 30.5552 166.003 31.881 165.604 33.1013C165.205 34.3216 164.83 35.3776 164.478 36.2693L159.76 50.2437ZM223.115 46.4069C223.584 47.2986 224.03 48.2256 224.452 49.1877C224.899 50.1498 225.321 51.1354 225.72 52.1445C226.119 51.112 226.541 50.1146 226.987 49.1525C227.433 48.1669 227.891 47.2165 228.36 46.3013L241.527 20.3941C241.762 19.9482 241.996 19.608 242.231 19.3733C242.489 19.1152 242.77 18.9274 243.076 18.8101C243.381 18.6928 243.721 18.6224 244.097 18.5989C244.495 18.5754 244.953 18.5637 245.47 18.5637H254.552V69.8501H244.061V40.3525C244.061 38.921 244.132 37.3722 244.273 35.7061L230.684 62.0709C230.261 62.892 229.686 63.5141 228.959 63.9365C228.255 64.3589 227.445 64.5701 226.53 64.5701H224.91C223.995 64.5701 223.174 64.3589 222.446 63.9365C221.742 63.5141 221.178 62.892 220.756 62.0709L207.097 35.6709C207.191 36.4922 207.261 37.3136 207.308 38.1349C207.355 38.9328 207.378 39.672 207.378 40.3525V69.8501H196.887V18.5637H205.97C206.487 18.5637 206.932 18.5754 207.308 18.5989C207.707 18.6224 208.059 18.6928 208.364 18.8101C208.669 18.9274 208.939 19.1152 209.174 19.3733C209.432 19.608 209.678 19.9482 209.913 20.3941L223.115 46.4069ZM296.055 18.5637V27.7157H275.003V39.6837H291.127V48.4837H275.003V60.6981H296.055V69.8501H263.033V18.5637H296.055ZM331.431 28.9829C331.079 29.5461 330.703 29.9685 330.305 30.2501C329.929 30.5317 329.436 30.6725 328.826 30.6725C328.286 30.6725 327.699 30.5082 327.066 30.1797C326.456 29.8277 325.752 29.4405 324.954 29.0181C324.179 28.5957 323.287 28.2202 322.278 27.8917C321.269 27.5397 320.119 27.3637 318.828 27.3637C316.598 27.3637 314.932 27.8448 313.829 28.8069C312.749 29.7456 312.209 31.0245 312.209 32.6437C312.209 33.6762 312.538 34.5328 313.195 35.2133C313.852 35.8938 314.709 36.4805 315.765 36.9733C316.845 37.4661 318.065 37.9237 319.426 38.3461C320.811 38.745 322.219 39.2026 323.651 39.7189C325.083 40.2117 326.479 40.7984 327.84 41.4789C329.225 42.1594 330.445 43.0277 331.502 44.0837C332.581 45.1397 333.449 46.4304 334.107 47.9557C334.764 49.4576 335.092 51.2762 335.092 53.4117C335.092 55.7816 334.682 57.9992 333.86 60.0645C333.039 62.1297 331.842 63.9365 330.269 65.4853C328.72 67.0104 326.796 68.2193 324.496 69.1109C322.219 69.9793 319.626 70.4133 316.716 70.4133C315.12 70.4133 313.488 70.2488 311.822 69.9205C310.179 69.5921 308.583 69.1345 307.034 68.5477C305.485 67.9377 304.03 67.2216 302.669 66.4005C301.308 65.5793 300.123 64.6641 299.113 63.6549L302.634 58.0933C302.892 57.6709 303.256 57.3304 303.725 57.0725C304.194 56.8145 304.699 56.6853 305.239 56.6853C305.943 56.6853 306.647 56.908 307.351 57.3541C308.079 57.8001 308.889 58.2929 309.78 58.8325C310.696 59.372 311.74 59.8648 312.914 60.3109C314.087 60.7569 315.472 60.9797 317.068 60.9797C319.227 60.9797 320.905 60.5105 322.102 59.5717C323.299 58.6097 323.897 57.0961 323.897 55.0309C323.897 53.8341 323.569 52.8602 322.912 52.1093C322.254 51.3584 321.386 50.7365 320.307 50.2437C319.25 49.7509 318.042 49.3168 316.68 48.9413C315.319 48.5658 313.923 48.1552 312.491 47.7093C311.059 47.24 309.663 46.6768 308.302 46.0197C306.94 45.3392 305.72 44.4592 304.64 43.3797C303.584 42.2768 302.728 40.9157 302.07 39.2965C301.413 37.6538 301.085 35.6357 301.085 33.2421C301.085 31.3178 301.472 29.4405 302.247 27.6101C303.021 25.7797 304.159 24.1488 305.661 22.7173C307.164 21.2858 309.006 20.1477 311.189 19.3029C313.371 18.4346 315.871 18.0005 318.687 18.0005C320.26 18.0005 321.785 18.1296 323.264 18.3877C324.766 18.6224 326.186 18.9861 327.523 19.4789C328.861 19.9482 330.105 20.5232 331.255 21.2037C332.428 21.8608 333.473 22.6117 334.388 23.4565L331.431 28.9829Z" fill="white"/>
</g>
<defs>
<clipPath id="clip0_6_12">
<rect width="379" height="77" fill="white"/>
</clipPath>
</defs>
</svg>
