<svg width="716" height="345" viewBox="0 0 716 345" fill="none" xmlns="http://www.w3.org/2000/svg">
<path d="M73.344 86.4H63.744V76.8H54.144V67.2H73.344V38.4H63.744V28.8H6.144V96H25.344V76.8H34.944V86.4H44.544V96H73.344V86.4ZM44.544 57.6V67.2H25.344V38.4H54.144V57.6H44.544ZM152.844 28.8H133.644V86.4H104.844V28.8H85.644V86.4H95.244V96H143.244V86.4H152.844V28.8ZM232.344 48H222.744V38.4H213.144V28.8H165.144V96H213.144V86.4H222.744V76.8H232.344V48ZM203.544 76.8V86.4H184.344V38.4H203.544V48H213.144V76.8H203.544ZM311.844 86.4H273.444V76.8H283.044V67.2H292.644V57.6H302.244V48H311.844V28.8H244.644V38.4H283.044V48H273.444V57.6H263.844V67.2H254.244V76.8H244.644V96H311.844V86.4ZM391.344 86.4H381.744V76.8H372.144V67.2H362.544V57.6H372.144V48H381.744V38.4H391.344V28.8H372.144V38.4H362.544V48H352.944V57.6H343.344V28.8H324.144V96H343.344V76.8H352.944V86.4H362.544V96H391.344V86.4ZM466.044 28.8H408.444V38.4H427.644V86.4H408.444V96H466.044V86.4H446.844V38.4H466.044V28.8Z" fill="#983131"/>
<path d="M73.344 191.8H54.144V201.4H34.944V191.8H25.344V163H34.944V153.4H54.144V163H73.344V153.4H63.744V143.8H25.344V153.4H15.744V163H6.144V191.8H15.744V201.4H25.344V211H63.744V201.4H73.344V191.8ZM152.844 153.4H143.244V143.8H95.244V153.4H85.644V201.4H95.244V211H143.244V201.4H152.844V153.4ZM104.844 201.4V153.4H133.644V201.4H104.844ZM232.344 163H222.744V153.4H213.144V143.8H184.344V153.4H174.744V163H165.144V211H184.344V191.8H213.144V211H232.344V163ZM184.344 182.2V163H193.944V153.4H203.544V163H213.144V182.2H184.344ZM311.844 201.4H263.844V143.8H244.644V211H311.844V201.4Z" fill="black"/>
<path d="M73.344 278H63.744V268.4H54.144V258.8H25.344V268.4H15.744V278H6.144V326H25.344V306.8H54.144V326H73.344V278ZM25.344 297.2V278H34.944V268.4H44.544V278H54.144V297.2H25.344ZM152.844 278H143.244V268.4H133.644V258.8H85.644V326H133.644V316.4H143.244V306.8H152.844V278ZM124.044 306.8V316.4H104.844V268.4H124.044V278H133.644V306.8H124.044ZM232.344 258.8H213.144V287.6H203.544V297.2H193.944V287.6H184.344V258.8H165.144V297.2H174.744V306.8H184.344V316.4H193.944V326H203.544V316.4H213.144V306.8H222.744V297.2H232.344V258.8ZM311.844 316.4H263.844V297.2H302.244V287.6H263.844V268.4H311.844V258.8H244.644V326H311.844V316.4ZM391.344 258.8H372.144V287.6H362.544V278H352.944V268.4H343.344V258.8H324.144V326H343.344V297.2H352.944V306.8H362.544V316.4H372.144V326H391.344V258.8ZM466.044 258.8H408.444V268.4H427.644V326H446.844V268.4H466.044V258.8ZM550.344 258.8H531.144V316.4H502.344V258.8H483.144V316.4H492.744V326H540.744V316.4H550.344V258.8ZM629.844 316.4H620.244V306.8H610.644V297.2H629.844V268.4H620.244V258.8H562.644V326H581.844V306.8H591.444V316.4H601.044V326H629.844V316.4ZM601.044 287.6V297.2H581.844V268.4H610.644V287.6H601.044ZM709.344 316.4H661.344V297.2H699.744V287.6H661.344V268.4H709.344V258.8H642.144V326H709.344V316.4Z" fill="#FFDF6F"/>
<path d="M73.344 86.4H76.344V83.4H73.344V86.4ZM63.744 86.4H60.744V89.4H63.744V86.4ZM63.744 76.8H66.744V73.8H63.744V76.8ZM54.144 76.8H51.144V79.8H54.144V76.8ZM54.144 67.2V64.2H51.144V67.2H54.144ZM73.344 67.2V70.2H76.344V67.2H73.344ZM73.344 38.4H76.344V35.4H73.344V38.4ZM63.744 38.4H60.744V41.4H63.744V38.4ZM63.744 28.8H66.744V25.8H63.744V28.8ZM6.144 28.8V25.8H3.144V28.8H6.144ZM6.144 96H3.144V99H6.144V96ZM25.344 96V99H28.344V96H25.344ZM25.344 76.8V73.8H22.344V76.8H25.344ZM34.944 76.8H37.944V73.8H34.944V76.8ZM34.944 86.4H31.944V89.4H34.944V86.4ZM44.544 86.4H47.544V83.4H44.544V86.4ZM44.544 96H41.544V99H44.544V96ZM73.344 96V99H76.344V96H73.344ZM44.544 57.6V54.6H41.544V57.6H44.544ZM44.544 67.2V70.2H47.544V67.2H44.544ZM25.344 67.2H22.344V70.2H25.344V67.2ZM25.344 38.4V35.4H22.344V38.4H25.344ZM54.144 38.4H57.144V35.4H54.144V38.4ZM54.144 57.6V60.6H57.144V57.6H54.144ZM73.344 83.4H63.744V89.4H73.344V83.4ZM66.744 86.4V76.8H60.744V86.4H66.744ZM63.744 73.8H54.144V79.8H63.744V73.8ZM57.144 76.8V67.2H51.144V76.8H57.144ZM54.144 70.2H73.344V64.2H54.144V70.2ZM76.344 67.2V38.4H70.344V67.2H76.344ZM73.344 35.4H63.744V41.4H73.344V35.4ZM66.744 38.4V28.8H60.744V38.4H66.744ZM63.744 25.8H6.144V31.8H63.744V25.8ZM3.144 28.8V96H9.144V28.8H3.144ZM6.144 99H25.344V93H6.144V99ZM28.344 96V76.8H22.344V96H28.344ZM25.344 79.8H34.944V73.8H25.344V79.8ZM31.944 76.8V86.4H37.944V76.8H31.944ZM34.944 89.4H44.544V83.4H34.944V89.4ZM41.544 86.4V96H47.544V86.4H41.544ZM44.544 99H73.344V93H44.544V99ZM76.344 96V86.4H70.344V96H76.344ZM41.544 57.6V67.2H47.544V57.6H41.544ZM44.544 64.2H25.344V70.2H44.544V64.2ZM28.344 67.2V38.4H22.344V67.2H28.344ZM25.344 41.4H54.144V35.4H25.344V41.4ZM51.144 38.4V57.6H57.144V38.4H51.144ZM54.144 54.6H44.544V60.6H54.144V54.6ZM152.844 28.8H155.844V25.8H152.844V28.8ZM133.644 28.8V25.8H130.644V28.8H133.644ZM133.644 86.4V89.4H136.644V86.4H133.644ZM104.844 86.4H101.844V89.4H104.844V86.4ZM104.844 28.8H107.844V25.8H104.844V28.8ZM85.644 28.8V25.8H82.644V28.8H85.644ZM85.644 86.4H82.644V89.4H85.644V86.4ZM95.244 86.4H98.244V83.4H95.244V86.4ZM95.244 96H92.244V99H95.244V96ZM143.244 96V99H146.244V96H143.244ZM143.244 86.4V83.4H140.244V86.4H143.244ZM152.844 86.4V89.4H155.844V86.4H152.844ZM152.844 25.8H133.644V31.8H152.844V25.8ZM130.644 28.8V86.4H136.644V28.8H130.644ZM133.644 83.4H104.844V89.4H133.644V83.4ZM107.844 86.4V28.8H101.844V86.4H107.844ZM104.844 25.8H85.644V31.8H104.844V25.8ZM82.644 28.8V86.4H88.644V28.8H82.644ZM85.644 89.4H95.244V83.4H85.644V89.4ZM92.244 86.4V96H98.244V86.4H92.244ZM95.244 99H143.244V93H95.244V99ZM146.244 96V86.4H140.244V96H146.244ZM143.244 89.4H152.844V83.4H143.244V89.4ZM155.844 86.4V28.8H149.844V86.4H155.844ZM232.344 48H235.344V45H232.344V48ZM222.744 48H219.744V51H222.744V48ZM222.744 38.4H225.744V35.4H222.744V38.4ZM213.144 38.4H210.144V41.4H213.144V38.4ZM213.144 28.8H216.144V25.8H213.144V28.8ZM165.144 28.8V25.8H162.144V28.8H165.144ZM165.144 96H162.144V99H165.144V96ZM213.144 96V99H216.144V96H213.144ZM213.144 86.4V83.4H210.144V86.4H213.144ZM222.744 86.4V89.4H225.744V86.4H222.744ZM222.744 76.8V73.8H219.744V76.8H222.744ZM232.344 76.8V79.8H235.344V76.8H232.344ZM203.544 76.8V73.8H200.544V76.8H203.544ZM203.544 86.4V89.4H206.544V86.4H203.544ZM184.344 86.4H181.344V89.4H184.344V86.4ZM184.344 38.4V35.4H181.344V38.4H184.344ZM203.544 38.4H206.544V35.4H203.544V38.4ZM203.544 48H200.544V51H203.544V48ZM213.144 48H216.144V45H213.144V48ZM213.144 76.8V79.8H216.144V76.8H213.144ZM232.344 45H222.744V51H232.344V45ZM225.744 48V38.4H219.744V48H225.744ZM222.744 35.4H213.144V41.4H222.744V35.4ZM216.144 38.4V28.8H210.144V38.4H216.144ZM213.144 25.8H165.144V31.8H213.144V25.8ZM162.144 28.8V96H168.144V28.8H162.144ZM165.144 99H213.144V93H165.144V99ZM216.144 96V86.4H210.144V96H216.144ZM213.144 89.4H222.744V83.4H213.144V89.4ZM225.744 86.4V76.8H219.744V86.4H225.744ZM222.744 79.8H232.344V73.8H222.744V79.8ZM235.344 76.8V48H229.344V76.8H235.344ZM200.544 76.8V86.4H206.544V76.8H200.544ZM203.544 83.4H184.344V89.4H203.544V83.4ZM187.344 86.4V38.4H181.344V86.4H187.344ZM184.344 41.4H203.544V35.4H184.344V41.4ZM200.544 38.4V48H206.544V38.4H200.544ZM203.544 51H213.144V45H203.544V51ZM210.144 48V76.8H216.144V48H210.144ZM213.144 73.8H203.544V79.8H213.144V73.8ZM311.844 86.4H314.844V83.4H311.844V86.4ZM273.444 86.4H270.444V89.4H273.444V86.4ZM273.444 76.8V73.8H270.444V76.8H273.444ZM283.044 76.8V79.8H286.044V76.8H283.044ZM283.044 67.2V64.2H280.044V67.2H283.044ZM292.644 67.2V70.2H295.644V67.2H292.644ZM292.644 57.6V54.6H289.644V57.6H292.644ZM302.244 57.6V60.6H305.244V57.6H302.244ZM302.244 48V45H299.244V48H302.244ZM311.844 48V51H314.844V48H311.844ZM311.844 28.8H314.844V25.8H311.844V28.8ZM244.644 28.8V25.8H241.644V28.8H244.644ZM244.644 38.4H241.644V41.4H244.644V38.4ZM283.044 38.4H286.044V35.4H283.044V38.4ZM283.044 48V51H286.044V48H283.044ZM273.444 48V45H270.444V48H273.444ZM273.444 57.6V60.6H276.444V57.6H273.444ZM263.844 57.6V54.6H260.844V57.6H263.844ZM263.844 67.2V70.2H266.844V67.2H263.844ZM254.244 67.2V64.2H251.244V67.2H254.244ZM254.244 76.8V79.8H257.244V76.8H254.244ZM244.644 76.8V73.8H241.644V76.8H244.644ZM244.644 96H241.644V99H244.644V96ZM311.844 96V99H314.844V96H311.844ZM311.844 83.4H273.444V89.4H311.844V83.4ZM276.444 86.4V76.8H270.444V86.4H276.444ZM273.444 79.8H283.044V73.8H273.444V79.8ZM286.044 76.8V67.2H280.044V76.8H286.044ZM283.044 70.2H292.644V64.2H283.044V70.2ZM295.644 67.2V57.6H289.644V67.2H295.644ZM292.644 60.6H302.244V54.6H292.644V60.6ZM305.244 57.6V48H299.244V57.6H305.244ZM302.244 51H311.844V45H302.244V51ZM314.844 48V28.8H308.844V48H314.844ZM311.844 25.8H244.644V31.8H311.844V25.8ZM241.644 28.8V38.4H247.644V28.8H241.644ZM244.644 41.4H283.044V35.4H244.644V41.4ZM280.044 38.4V48H286.044V38.4H280.044ZM283.044 45H273.444V51H283.044V45ZM270.444 48V57.6H276.444V48H270.444ZM273.444 54.6H263.844V60.6H273.444V54.6ZM260.844 57.6V67.2H266.844V57.6H260.844ZM263.844 64.2H254.244V70.2H263.844V64.2ZM251.244 67.2V76.8H257.244V67.2H251.244ZM254.244 73.8H244.644V79.8H254.244V73.8ZM241.644 76.8V96H247.644V76.8H241.644ZM244.644 99H311.844V93H244.644V99ZM314.844 96V86.4H308.844V96H314.844ZM391.344 86.4H394.344V83.4H391.344V86.4ZM381.744 86.4H378.744V89.4H381.744V86.4ZM381.744 76.8H384.744V73.8H381.744V76.8ZM372.144 76.8H369.144V79.8H372.144V76.8ZM372.144 67.2H375.144V64.2H372.144V67.2ZM362.544 67.2H359.544V70.2H362.544V67.2ZM362.544 57.6V54.6H359.544V57.6H362.544ZM372.144 57.6V60.6H375.144V57.6H372.144ZM372.144 48V45H369.144V48H372.144ZM381.744 48V51H384.744V48H381.744ZM381.744 38.4V35.4H378.744V38.4H381.744ZM391.344 38.4V41.4H394.344V38.4H391.344ZM391.344 28.8H394.344V25.8H391.344V28.8ZM372.144 28.8V25.8H369.144V28.8H372.144ZM372.144 38.4V41.4H375.144V38.4H372.144ZM362.544 38.4V35.4H359.544V38.4H362.544ZM362.544 48V51H365.544V48H362.544ZM352.944 48V45H349.944V48H352.944ZM352.944 57.6V60.6H355.944V57.6H352.944ZM343.344 57.6H340.344V60.6H343.344V57.6ZM343.344 28.8H346.344V25.8H343.344V28.8ZM324.144 28.8V25.8H321.144V28.8H324.144ZM324.144 96H321.144V99H324.144V96ZM343.344 96V99H346.344V96H343.344ZM343.344 76.8V73.8H340.344V76.8H343.344ZM352.944 76.8H355.944V73.8H352.944V76.8ZM352.944 86.4H349.944V89.4H352.944V86.4ZM362.544 86.4H365.544V83.4H362.544V86.4ZM362.544 96H359.544V99H362.544V96ZM391.344 96V99H394.344V96H391.344ZM391.344 83.4H381.744V89.4H391.344V83.4ZM384.744 86.4V76.8H378.744V86.4H384.744ZM381.744 73.8H372.144V79.8H381.744V73.8ZM375.144 76.8V67.2H369.144V76.8H375.144ZM372.144 64.2H362.544V70.2H372.144V64.2ZM365.544 67.2V57.6H359.544V67.2H365.544ZM362.544 60.6H372.144V54.6H362.544V60.6ZM375.144 57.6V48H369.144V57.6H375.144ZM372.144 51H381.744V45H372.144V51ZM384.744 48V38.4H378.744V48H384.744ZM381.744 41.4H391.344V35.4H381.744V41.4ZM394.344 38.4V28.8H388.344V38.4H394.344ZM391.344 25.8H372.144V31.8H391.344V25.8ZM369.144 28.8V38.4H375.144V28.8H369.144ZM372.144 35.4H362.544V41.4H372.144V35.4ZM359.544 38.4V48H365.544V38.4H359.544ZM362.544 45H352.944V51H362.544V45ZM349.944 48V57.6H355.944V48H349.944ZM352.944 54.6H343.344V60.6H352.944V54.6ZM346.344 57.6V28.8H340.344V57.6H346.344ZM343.344 25.8H324.144V31.8H343.344V25.8ZM321.144 28.8V96H327.144V28.8H321.144ZM324.144 99H343.344V93H324.144V99ZM346.344 96V76.8H340.344V96H346.344ZM343.344 79.8H352.944V73.8H343.344V79.8ZM349.944 76.8V86.4H355.944V76.8H349.944ZM352.944 89.4H362.544V83.4H352.944V89.4ZM359.544 86.4V96H365.544V86.4H359.544ZM362.544 99H391.344V93H362.544V99ZM394.344 96V86.4H388.344V96H394.344ZM466.044 28.8H469.044V25.8H466.044V28.8ZM408.444 28.8V25.8H405.444V28.8H408.444ZM408.444 38.4H405.444V41.4H408.444V38.4ZM427.644 38.4H430.644V35.4H427.644V38.4ZM427.644 86.4V89.4H430.644V86.4H427.644ZM408.444 86.4V83.4H405.444V86.4H408.444ZM408.444 96H405.444V99H408.444V96ZM466.044 96V99H469.044V96H466.044ZM466.044 86.4H469.044V83.4H466.044V86.4ZM446.844 86.4H443.844V89.4H446.844V86.4ZM446.844 38.4V35.4H443.844V38.4H446.844ZM466.044 38.4V41.4H469.044V38.4H466.044ZM466.044 25.8H408.444V31.8H466.044V25.8ZM405.444 28.8V38.4H411.444V28.8H405.444ZM408.444 41.4H427.644V35.4H408.444V41.4ZM424.644 38.4V86.4H430.644V38.4H424.644ZM427.644 83.4H408.444V89.4H427.644V83.4ZM405.444 86.4V96H411.444V86.4H405.444ZM408.444 99H466.044V93H408.444V99ZM469.044 96V86.4H463.044V96H469.044ZM466.044 83.4H446.844V89.4H466.044V83.4ZM449.844 86.4V38.4H443.844V86.4H449.844ZM446.844 41.4H466.044V35.4H446.844V41.4ZM469.044 38.4V28.8H463.044V38.4H469.044ZM73.344 191.8H76.344V188.8H73.344V191.8ZM54.144 191.8V188.8H51.144V191.8H54.144ZM54.144 201.4V204.4H57.144V201.4H54.144ZM34.944 201.4H31.944V204.4H34.944V201.4ZM34.944 191.8H37.944V188.8H34.944V191.8ZM25.344 191.8H22.344V194.8H25.344V191.8ZM25.344 163V160H22.344V163H25.344ZM34.944 163V166H37.944V163H34.944ZM34.944 153.4V150.4H31.944V153.4H34.944ZM54.144 153.4H57.144V150.4H54.144V153.4ZM54.144 163H51.144V166H54.144V163ZM73.344 163V166H76.344V163H73.344ZM73.344 153.4H76.344V150.4H73.344V153.4ZM63.744 153.4H60.744V156.4H63.744V153.4ZM63.744 143.8H66.744V140.8H63.744V143.8ZM25.344 143.8V140.8H22.344V143.8H25.344ZM25.344 153.4V156.4H28.344V153.4H25.344ZM15.744 153.4V150.4H12.744V153.4H15.744ZM15.744 163V166H18.744V163H15.744ZM6.144 163V160H3.144V163H6.144ZM6.144 191.8H3.144V194.8H6.144V191.8ZM15.744 191.8H18.744V188.8H15.744V191.8ZM15.744 201.4H12.744V204.4H15.744V201.4ZM25.344 201.4H28.344V198.4H25.344V201.4ZM25.344 211H22.344V214H25.344V211ZM63.744 211V214H66.744V211H63.744ZM63.744 201.4V198.4H60.744V201.4H63.744ZM73.344 201.4V204.4H76.344V201.4H73.344ZM73.344 188.8H54.144V194.8H73.344V188.8ZM51.144 191.8V201.4H57.144V191.8H51.144ZM54.144 198.4H34.944V204.4H54.144V198.4ZM37.944 201.4V191.8H31.944V201.4H37.944ZM34.944 188.8H25.344V194.8H34.944V188.8ZM28.344 191.8V163H22.344V191.8H28.344ZM25.344 166H34.944V160H25.344V166ZM37.944 163V153.4H31.944V163H37.944ZM34.944 156.4H54.144V150.4H34.944V156.4ZM51.144 153.4V163H57.144V153.4H51.144ZM54.144 166H73.344V160H54.144V166ZM76.344 163V153.4H70.344V163H76.344ZM73.344 150.4H63.744V156.4H73.344V150.4ZM66.744 153.4V143.8H60.744V153.4H66.744ZM63.744 140.8H25.344V146.8H63.744V140.8ZM22.344 143.8V153.4H28.344V143.8H22.344ZM25.344 150.4H15.744V156.4H25.344V150.4ZM12.744 153.4V163H18.744V153.4H12.744ZM15.744 160H6.144V166H15.744V160ZM3.144 163V191.8H9.144V163H3.144ZM6.144 194.8H15.744V188.8H6.144V194.8ZM12.744 191.8V201.4H18.744V191.8H12.744ZM15.744 204.4H25.344V198.4H15.744V204.4ZM22.344 201.4V211H28.344V201.4H22.344ZM25.344 214H63.744V208H25.344V214ZM66.744 211V201.4H60.744V211H66.744ZM63.744 204.4H73.344V198.4H63.744V204.4ZM76.344 201.4V191.8H70.344V201.4H76.344ZM152.844 153.4H155.844V150.4H152.844V153.4ZM143.244 153.4H140.244V156.4H143.244V153.4ZM143.244 143.8H146.244V140.8H143.244V143.8ZM95.244 143.8V140.8H92.244V143.8H95.244ZM95.244 153.4V156.4H98.244V153.4H95.244ZM85.644 153.4V150.4H82.644V153.4H85.644ZM85.644 201.4H82.644V204.4H85.644V201.4ZM95.244 201.4H98.244V198.4H95.244V201.4ZM95.244 211H92.244V214H95.244V211ZM143.244 211V214H146.244V211H143.244ZM143.244 201.4V198.4H140.244V201.4H143.244ZM152.844 201.4V204.4H155.844V201.4H152.844ZM104.844 201.4H101.844V204.4H104.844V201.4ZM104.844 153.4V150.4H101.844V153.4H104.844ZM133.644 153.4H136.644V150.4H133.644V153.4ZM133.644 201.4V204.4H136.644V201.4H133.644ZM152.844 150.4H143.244V156.4H152.844V150.4ZM146.244 153.4V143.8H140.244V153.4H146.244ZM143.244 140.8H95.244V146.8H143.244V140.8ZM92.244 143.8V153.4H98.244V143.8H92.244ZM95.244 150.4H85.644V156.4H95.244V150.4ZM82.644 153.4V201.4H88.644V153.4H82.644ZM85.644 204.4H95.244V198.4H85.644V204.4ZM92.244 201.4V211H98.244V201.4H92.244ZM95.244 214H143.244V208H95.244V214ZM146.244 211V201.4H140.244V211H146.244ZM143.244 204.4H152.844V198.4H143.244V204.4ZM155.844 201.4V153.4H149.844V201.4H155.844ZM107.844 201.4V153.4H101.844V201.4H107.844ZM104.844 156.4H133.644V150.4H104.844V156.4ZM130.644 153.4V201.4H136.644V153.4H130.644ZM133.644 198.4H104.844V204.4H133.644V198.4ZM232.344 163H235.344V160H232.344V163ZM222.744 163H219.744V166H222.744V163ZM222.744 153.4H225.744V150.4H222.744V153.4ZM213.144 153.4H210.144V156.4H213.144V153.4ZM213.144 143.8H216.144V140.8H213.144V143.8ZM184.344 143.8V140.8H181.344V143.8H184.344ZM184.344 153.4V156.4H187.344V153.4H184.344ZM174.744 153.4V150.4H171.744V153.4H174.744ZM174.744 163V166H177.744V163H174.744ZM165.144 163V160H162.144V163H165.144ZM165.144 211H162.144V214H165.144V211ZM184.344 211V214H187.344V211H184.344ZM184.344 191.8V188.8H181.344V191.8H184.344ZM213.144 191.8H216.144V188.8H213.144V191.8ZM213.144 211H210.144V214H213.144V211ZM232.344 211V214H235.344V211H232.344ZM184.344 182.2H181.344V185.2H184.344V182.2ZM184.344 163V160H181.344V163H184.344ZM193.944 163V166H196.944V163H193.944ZM193.944 153.4V150.4H190.944V153.4H193.944ZM203.544 153.4H206.544V150.4H203.544V153.4ZM203.544 163H200.544V166H203.544V163ZM213.144 163H216.144V160H213.144V163ZM213.144 182.2V185.2H216.144V182.2H213.144ZM232.344 160H222.744V166H232.344V160ZM225.744 163V153.4H219.744V163H225.744ZM222.744 150.4H213.144V156.4H222.744V150.4ZM216.144 153.4V143.8H210.144V153.4H216.144ZM213.144 140.8H184.344V146.8H213.144V140.8ZM181.344 143.8V153.4H187.344V143.8H181.344ZM184.344 150.4H174.744V156.4H184.344V150.4ZM171.744 153.4V163H177.744V153.4H171.744ZM174.744 160H165.144V166H174.744V160ZM162.144 163V211H168.144V163H162.144ZM165.144 214H184.344V208H165.144V214ZM187.344 211V191.8H181.344V211H187.344ZM184.344 194.8H213.144V188.8H184.344V194.8ZM210.144 191.8V211H216.144V191.8H210.144ZM213.144 214H232.344V208H213.144V214ZM235.344 211V163H229.344V211H235.344ZM187.344 182.2V163H181.344V182.2H187.344ZM184.344 166H193.944V160H184.344V166ZM196.944 163V153.4H190.944V163H196.944ZM193.944 156.4H203.544V150.4H193.944V156.4ZM200.544 153.4V163H206.544V153.4H200.544ZM203.544 166H213.144V160H203.544V166ZM210.144 163V182.2H216.144V163H210.144ZM213.144 179.2H184.344V185.2H213.144V179.2ZM311.844 201.4H314.844V198.4H311.844V201.4ZM263.844 201.4H260.844V204.4H263.844V201.4ZM263.844 143.8H266.844V140.8H263.844V143.8ZM244.644 143.8V140.8H241.644V143.8H244.644ZM244.644 211H241.644V214H244.644V211ZM311.844 211V214H314.844V211H311.844ZM311.844 198.4H263.844V204.4H311.844V198.4ZM266.844 201.4V143.8H260.844V201.4H266.844ZM263.844 140.8H244.644V146.8H263.844V140.8ZM241.644 143.8V211H247.644V143.8H241.644ZM244.644 214H311.844V208H244.644V214ZM314.844 211V201.4H308.844V211H314.844ZM73.344 278H76.344V275H73.344V278ZM63.744 278H60.744V281H63.744V278ZM63.744 268.4H66.744V265.4H63.744V268.4ZM54.144 268.4H51.144V271.4H54.144V268.4ZM54.144 258.8H57.144V255.8H54.144V258.8ZM25.344 258.8V255.8H22.344V258.8H25.344ZM25.344 268.4V271.4H28.344V268.4H25.344ZM15.744 268.4V265.4H12.744V268.4H15.744ZM15.744 278V281H18.744V278H15.744ZM6.144 278V275H3.144V278H6.144ZM6.144 326H3.144V329H6.144V326ZM25.344 326V329H28.344V326H25.344ZM25.344 306.8V303.8H22.344V306.8H25.344ZM54.144 306.8H57.144V303.8H54.144V306.8ZM54.144 326H51.144V329H54.144V326ZM73.344 326V329H76.344V326H73.344ZM25.344 297.2H22.344V300.2H25.344V297.2ZM25.344 278V275H22.344V278H25.344ZM34.944 278V281H37.944V278H34.944ZM34.944 268.4V265.4H31.944V268.4H34.944ZM44.544 268.4H47.544V265.4H44.544V268.4ZM44.544 278H41.544V281H44.544V278ZM54.144 278H57.144V275H54.144V278ZM54.144 297.2V300.2H57.144V297.2H54.144ZM73.344 275H63.744V281H73.344V275ZM66.744 278V268.4H60.744V278H66.744ZM63.744 265.4H54.144V271.4H63.744V265.4ZM57.144 268.4V258.8H51.144V268.4H57.144ZM54.144 255.8H25.344V261.8H54.144V255.8ZM22.344 258.8V268.4H28.344V258.8H22.344ZM25.344 265.4H15.744V271.4H25.344V265.4ZM12.744 268.4V278H18.744V268.4H12.744ZM15.744 275H6.144V281H15.744V275ZM3.144 278V326H9.144V278H3.144ZM6.144 329H25.344V323H6.144V329ZM28.344 326V306.8H22.344V326H28.344ZM25.344 309.8H54.144V303.8H25.344V309.8ZM51.144 306.8V326H57.144V306.8H51.144ZM54.144 329H73.344V323H54.144V329ZM76.344 326V278H70.344V326H76.344ZM28.344 297.2V278H22.344V297.2H28.344ZM25.344 281H34.944V275H25.344V281ZM37.944 278V268.4H31.944V278H37.944ZM34.944 271.4H44.544V265.4H34.944V271.4ZM41.544 268.4V278H47.544V268.4H41.544ZM44.544 281H54.144V275H44.544V281ZM51.144 278V297.2H57.144V278H51.144ZM54.144 294.2H25.344V300.2H54.144V294.2ZM152.844 278H155.844V275H152.844V278ZM143.244 278H140.244V281H143.244V278ZM143.244 268.4H146.244V265.4H143.244V268.4ZM133.644 268.4H130.644V271.4H133.644V268.4ZM133.644 258.8H136.644V255.8H133.644V258.8ZM85.644 258.8V255.8H82.644V258.8H85.644ZM85.644 326H82.644V329H85.644V326ZM133.644 326V329H136.644V326H133.644ZM133.644 316.4V313.4H130.644V316.4H133.644ZM143.244 316.4V319.4H146.244V316.4H143.244ZM143.244 306.8V303.8H140.244V306.8H143.244ZM152.844 306.8V309.8H155.844V306.8H152.844ZM124.044 306.8V303.8H121.044V306.8H124.044ZM124.044 316.4V319.4H127.044V316.4H124.044ZM104.844 316.4H101.844V319.4H104.844V316.4ZM104.844 268.4V265.4H101.844V268.4H104.844ZM124.044 268.4H127.044V265.4H124.044V268.4ZM124.044 278H121.044V281H124.044V278ZM133.644 278H136.644V275H133.644V278ZM133.644 306.8V309.8H136.644V306.8H133.644ZM152.844 275H143.244V281H152.844V275ZM146.244 278V268.4H140.244V278H146.244ZM143.244 265.4H133.644V271.4H143.244V265.4ZM136.644 268.4V258.8H130.644V268.4H136.644ZM133.644 255.8H85.644V261.8H133.644V255.8ZM82.644 258.8V326H88.644V258.8H82.644ZM85.644 329H133.644V323H85.644V329ZM136.644 326V316.4H130.644V326H136.644ZM133.644 319.4H143.244V313.4H133.644V319.4ZM146.244 316.4V306.8H140.244V316.4H146.244ZM143.244 309.8H152.844V303.8H143.244V309.8ZM155.844 306.8V278H149.844V306.8H155.844ZM121.044 306.8V316.4H127.044V306.8H121.044ZM124.044 313.4H104.844V319.4H124.044V313.4ZM107.844 316.4V268.4H101.844V316.4H107.844ZM104.844 271.4H124.044V265.4H104.844V271.4ZM121.044 268.4V278H127.044V268.4H121.044ZM124.044 281H133.644V275H124.044V281ZM130.644 278V306.8H136.644V278H130.644ZM133.644 303.8H124.044V309.8H133.644V303.8ZM232.344 258.8H235.344V255.8H232.344V258.8ZM213.144 258.8V255.8H210.144V258.8H213.144ZM213.144 287.6V290.6H216.144V287.6H213.144ZM203.544 287.6V284.6H200.544V287.6H203.544ZM203.544 297.2V300.2H206.544V297.2H203.544ZM193.944 297.2H190.944V300.2H193.944V297.2ZM193.944 287.6H196.944V284.6H193.944V287.6ZM184.344 287.6H181.344V290.6H184.344V287.6ZM184.344 258.8H187.344V255.8H184.344V258.8ZM165.144 258.8V255.8H162.144V258.8H165.144ZM165.144 297.2H162.144V300.2H165.144V297.2ZM174.744 297.2H177.744V294.2H174.744V297.2ZM174.744 306.8H171.744V309.8H174.744V306.8ZM184.344 306.8H187.344V303.8H184.344V306.8ZM184.344 316.4H181.344V319.4H184.344V316.4ZM193.944 316.4H196.944V313.4H193.944V316.4ZM193.944 326H190.944V329H193.944V326ZM203.544 326V329H206.544V326H203.544ZM203.544 316.4V313.4H200.544V316.4H203.544ZM213.144 316.4V319.4H216.144V316.4H213.144ZM213.144 306.8V303.8H210.144V306.8H213.144ZM222.744 306.8V309.8H225.744V306.8H222.744ZM222.744 297.2V294.2H219.744V297.2H222.744ZM232.344 297.2V300.2H235.344V297.2H232.344ZM232.344 255.8H213.144V261.8H232.344V255.8ZM210.144 258.8V287.6H216.144V258.8H210.144ZM213.144 284.6H203.544V290.6H213.144V284.6ZM200.544 287.6V297.2H206.544V287.6H200.544ZM203.544 294.2H193.944V300.2H203.544V294.2ZM196.944 297.2V287.6H190.944V297.2H196.944ZM193.944 284.6H184.344V290.6H193.944V284.6ZM187.344 287.6V258.8H181.344V287.6H187.344ZM184.344 255.8H165.144V261.8H184.344V255.8ZM162.144 258.8V297.2H168.144V258.8H162.144ZM165.144 300.2H174.744V294.2H165.144V300.2ZM171.744 297.2V306.8H177.744V297.2H171.744ZM174.744 309.8H184.344V303.8H174.744V309.8ZM181.344 306.8V316.4H187.344V306.8H181.344ZM184.344 319.4H193.944V313.4H184.344V319.4ZM190.944 316.4V326H196.944V316.4H190.944ZM193.944 329H203.544V323H193.944V329ZM206.544 326V316.4H200.544V326H206.544ZM203.544 319.4H213.144V313.4H203.544V319.4ZM216.144 316.4V306.8H210.144V316.4H216.144ZM213.144 309.8H222.744V303.8H213.144V309.8ZM225.744 306.8V297.2H219.744V306.8H225.744ZM222.744 300.2H232.344V294.2H222.744V300.2ZM235.344 297.2V258.8H229.344V297.2H235.344ZM311.844 316.4H314.844V313.4H311.844V316.4ZM263.844 316.4H260.844V319.4H263.844V316.4ZM263.844 297.2V294.2H260.844V297.2H263.844ZM302.244 297.2V300.2H305.244V297.2H302.244ZM302.244 287.6H305.244V284.6H302.244V287.6ZM263.844 287.6H260.844V290.6H263.844V287.6ZM263.844 268.4V265.4H260.844V268.4H263.844ZM311.844 268.4V271.4H314.844V268.4H311.844ZM311.844 258.8H314.844V255.8H311.844V258.8ZM244.644 258.8V255.8H241.644V258.8H244.644ZM244.644 326H241.644V329H244.644V326ZM311.844 326V329H314.844V326H311.844ZM311.844 313.4H263.844V319.4H311.844V313.4ZM266.844 316.4V297.2H260.844V316.4H266.844ZM263.844 300.2H302.244V294.2H263.844V300.2ZM305.244 297.2V287.6H299.244V297.2H305.244ZM302.244 284.6H263.844V290.6H302.244V284.6ZM266.844 287.6V268.4H260.844V287.6H266.844ZM263.844 271.4H311.844V265.4H263.844V271.4ZM314.844 268.4V258.8H308.844V268.4H314.844ZM311.844 255.8H244.644V261.8H311.844V255.8ZM241.644 258.8V326H247.644V258.8H241.644ZM244.644 329H311.844V323H244.644V329ZM314.844 326V316.4H308.844V326H314.844ZM391.344 258.8H394.344V255.8H391.344V258.8ZM372.144 258.8V255.8H369.144V258.8H372.144ZM372.144 287.6V290.6H375.144V287.6H372.144ZM362.544 287.6H359.544V290.6H362.544V287.6ZM362.544 278H365.544V275H362.544V278ZM352.944 278H349.944V281H352.944V278ZM352.944 268.4H355.944V265.4H352.944V268.4ZM343.344 268.4H340.344V271.4H343.344V268.4ZM343.344 258.8H346.344V255.8H343.344V258.8ZM324.144 258.8V255.8H321.144V258.8H324.144ZM324.144 326H321.144V329H324.144V326ZM343.344 326V329H346.344V326H343.344ZM343.344 297.2V294.2H340.344V297.2H343.344ZM352.944 297.2H355.944V294.2H352.944V297.2ZM352.944 306.8H349.944V309.8H352.944V306.8ZM362.544 306.8H365.544V303.8H362.544V306.8ZM362.544 316.4H359.544V319.4H362.544V316.4ZM372.144 316.4H375.144V313.4H372.144V316.4ZM372.144 326H369.144V329H372.144V326ZM391.344 326V329H394.344V326H391.344ZM391.344 255.8H372.144V261.8H391.344V255.8ZM369.144 258.8V287.6H375.144V258.8H369.144ZM372.144 284.6H362.544V290.6H372.144V284.6ZM365.544 287.6V278H359.544V287.6H365.544ZM362.544 275H352.944V281H362.544V275ZM355.944 278V268.4H349.944V278H355.944ZM352.944 265.4H343.344V271.4H352.944V265.4ZM346.344 268.4V258.8H340.344V268.4H346.344ZM343.344 255.8H324.144V261.8H343.344V255.8ZM321.144 258.8V326H327.144V258.8H321.144ZM324.144 329H343.344V323H324.144V329ZM346.344 326V297.2H340.344V326H346.344ZM343.344 300.2H352.944V294.2H343.344V300.2ZM349.944 297.2V306.8H355.944V297.2H349.944ZM352.944 309.8H362.544V303.8H352.944V309.8ZM359.544 306.8V316.4H365.544V306.8H359.544ZM362.544 319.4H372.144V313.4H362.544V319.4ZM369.144 316.4V326H375.144V316.4H369.144ZM372.144 329H391.344V323H372.144V329ZM394.344 326V258.8H388.344V326H394.344ZM466.044 258.8H469.044V255.8H466.044V258.8ZM408.444 258.8V255.8H405.444V258.8H408.444ZM408.444 268.4H405.444V271.4H408.444V268.4ZM427.644 268.4H430.644V265.4H427.644V268.4ZM427.644 326H424.644V329H427.644V326ZM446.844 326V329H449.844V326H446.844ZM446.844 268.4V265.4H443.844V268.4H446.844ZM466.044 268.4V271.4H469.044V268.4H466.044ZM466.044 255.8H408.444V261.8H466.044V255.8ZM405.444 258.8V268.4H411.444V258.8H405.444ZM408.444 271.4H427.644V265.4H408.444V271.4ZM424.644 268.4V326H430.644V268.4H424.644ZM427.644 329H446.844V323H427.644V329ZM449.844 326V268.4H443.844V326H449.844ZM446.844 271.4H466.044V265.4H446.844V271.4ZM469.044 268.4V258.8H463.044V268.4H469.044ZM550.344 258.8H553.344V255.8H550.344V258.8ZM531.144 258.8V255.8H528.144V258.8H531.144ZM531.144 316.4V319.4H534.144V316.4H531.144ZM502.344 316.4H499.344V319.4H502.344V316.4ZM502.344 258.8H505.344V255.8H502.344V258.8ZM483.144 258.8V255.8H480.144V258.8H483.144ZM483.144 316.4H480.144V319.4H483.144V316.4ZM492.744 316.4H495.744V313.4H492.744V316.4ZM492.744 326H489.744V329H492.744V326ZM540.744 326V329H543.744V326H540.744ZM540.744 316.4V313.4H537.744V316.4H540.744ZM550.344 316.4V319.4H553.344V316.4H550.344ZM550.344 255.8H531.144V261.8H550.344V255.8ZM528.144 258.8V316.4H534.144V258.8H528.144ZM531.144 313.4H502.344V319.4H531.144V313.4ZM505.344 316.4V258.8H499.344V316.4H505.344ZM502.344 255.8H483.144V261.8H502.344V255.8ZM480.144 258.8V316.4H486.144V258.8H480.144ZM483.144 319.4H492.744V313.4H483.144V319.4ZM489.744 316.4V326H495.744V316.4H489.744ZM492.744 329H540.744V323H492.744V329ZM543.744 326V316.4H537.744V326H543.744ZM540.744 319.4H550.344V313.4H540.744V319.4ZM553.344 316.4V258.8H547.344V316.4H553.344ZM629.844 316.4H632.844V313.4H629.844V316.4ZM620.244 316.4H617.244V319.4H620.244V316.4ZM620.244 306.8H623.244V303.8H620.244V306.8ZM610.644 306.8H607.644V309.8H610.644V306.8ZM610.644 297.2V294.2H607.644V297.2H610.644ZM629.844 297.2V300.2H632.844V297.2H629.844ZM629.844 268.4H632.844V265.4H629.844V268.4ZM620.244 268.4H617.244V271.4H620.244V268.4ZM620.244 258.8H623.244V255.8H620.244V258.8ZM562.644 258.8V255.8H559.644V258.8H562.644ZM562.644 326H559.644V329H562.644V326ZM581.844 326V329H584.844V326H581.844ZM581.844 306.8V303.8H578.844V306.8H581.844ZM591.444 306.8H594.444V303.8H591.444V306.8ZM591.444 316.4H588.444V319.4H591.444V316.4ZM601.044 316.4H604.044V313.4H601.044V316.4ZM601.044 326H598.044V329H601.044V326ZM629.844 326V329H632.844V326H629.844ZM601.044 287.6V284.6H598.044V287.6H601.044ZM601.044 297.2V300.2H604.044V297.2H601.044ZM581.844 297.2H578.844V300.2H581.844V297.2ZM581.844 268.4V265.4H578.844V268.4H581.844ZM610.644 268.4H613.644V265.4H610.644V268.4ZM610.644 287.6V290.6H613.644V287.6H610.644ZM629.844 313.4H620.244V319.4H629.844V313.4ZM623.244 316.4V306.8H617.244V316.4H623.244ZM620.244 303.8H610.644V309.8H620.244V303.8ZM613.644 306.8V297.2H607.644V306.8H613.644ZM610.644 300.2H629.844V294.2H610.644V300.2ZM632.844 297.2V268.4H626.844V297.2H632.844ZM629.844 265.4H620.244V271.4H629.844V265.4ZM623.244 268.4V258.8H617.244V268.4H623.244ZM620.244 255.8H562.644V261.8H620.244V255.8ZM559.644 258.8V326H565.644V258.8H559.644ZM562.644 329H581.844V323H562.644V329ZM584.844 326V306.8H578.844V326H584.844ZM581.844 309.8H591.444V303.8H581.844V309.8ZM588.444 306.8V316.4H594.444V306.8H588.444ZM591.444 319.4H601.044V313.4H591.444V319.4ZM598.044 316.4V326H604.044V316.4H598.044ZM601.044 329H629.844V323H601.044V329ZM632.844 326V316.4H626.844V326H632.844ZM598.044 287.6V297.2H604.044V287.6H598.044ZM601.044 294.2H581.844V300.2H601.044V294.2ZM584.844 297.2V268.4H578.844V297.2H584.844ZM581.844 271.4H610.644V265.4H581.844V271.4ZM607.644 268.4V287.6H613.644V268.4H607.644ZM610.644 284.6H601.044V290.6H610.644V284.6ZM709.344 316.4H712.344V313.4H709.344V316.4ZM661.344 316.4H658.344V319.4H661.344V316.4ZM661.344 297.2V294.2H658.344V297.2H661.344ZM699.744 297.2V300.2H702.744V297.2H699.744ZM699.744 287.6H702.744V284.6H699.744V287.6ZM661.344 287.6H658.344V290.6H661.344V287.6ZM661.344 268.4V265.4H658.344V268.4H661.344ZM709.344 268.4V271.4H712.344V268.4H709.344ZM709.344 258.8H712.344V255.8H709.344V258.8ZM642.144 258.8V255.8H639.144V258.8H642.144ZM642.144 326H639.144V329H642.144V326ZM709.344 326V329H712.344V326H709.344ZM709.344 313.4H661.344V319.4H709.344V313.4ZM664.344 316.4V297.2H658.344V316.4H664.344ZM661.344 300.2H699.744V294.2H661.344V300.2ZM702.744 297.2V287.6H696.744V297.2H702.744ZM699.744 284.6H661.344V290.6H699.744V284.6ZM664.344 287.6V268.4H658.344V287.6H664.344ZM661.344 271.4H709.344V265.4H661.344V271.4ZM712.344 268.4V258.8H706.344V268.4H712.344ZM709.344 255.8H642.144V261.8H709.344V255.8ZM639.144 258.8V326H645.144V258.8H639.144ZM642.144 329H709.344V323H642.144V329ZM712.344 326V316.4H706.344V326H712.344Z" fill="black"/>
</svg>
